<?xml version="1.0" encoding="utf-8" standalone="no"?>
<!DOCTYPE svg PUBLIC "-//W3C//DTD SVG 1.1//EN"
  "http://www.w3.org/Graphics/SVG/1.1/DTD/svg11.dtd">
<svg xmlns:xlink="http://www.w3.org/1999/xlink" width="630.10125pt" height="329.60625pt" viewBox="0 0 630.10125 329.60625" xmlns="http://www.w3.org/2000/svg" version="1.1">
 <metadata>
  <rdf:RDF xmlns:dc="http://purl.org/dc/elements/1.1/" xmlns:cc="http://creativecommons.org/ns#" xmlns:rdf="http://www.w3.org/1999/02/22-rdf-syntax-ns#">
   <cc:Work>
    <dc:type rdf:resource="http://purl.org/dc/dcmitype/StillImage"/>
    <dc:date>2026-05-17T17:31:00.895343</dc:date>
    <dc:format>image/svg+xml</dc:format>
    <dc:creator>
     <cc:Agent>
      <dc:title>Matplotlib v3.10.9, https://matplotlib.org/</dc:title>
     </cc:Agent>
    </dc:creator>
   </cc:Work>
  </rdf:RDF>
 </metadata>
 <defs>
  <style type="text/css">*{stroke-linejoin: round; stroke-linecap: butt}</style>
 </defs>
 <g id="figure_1">
  <g id="patch_1">
   <path d="M 0 329.60625 
L 630.10125 329.60625 
L 630.10125 0 
L 0 0 
z
" style="fill: #ffffff"/>
  </g>
  <g id="axes_1">
   <g id="patch_2">
    <path d="M 33.60625 297.5625 
L 306.90125 297.5625 
L 306.90125 69.365 
L 33.60625 69.365 
z
" style="fill: #ffffff"/>
   </g>
   <g id="line2d_1">
    <path d="M 33.60625 183.46375 
L 306.90125 183.46375 
" clip-path="url(#p7c11729f35)" style="fill: none; stroke: #767676; stroke-width: 0.5; stroke-linecap: square"/>
   </g>
   <g id="line2d_2">
    <path d="M 153.172813 297.5625 
L 153.172813 69.365 
" clip-path="url(#p7c11729f35)" style="fill: none; stroke: #767676; stroke-width: 0.5; stroke-linecap: square"/>
   </g>
   <g id="matplotlib.axis_1">
    <g id="xtick_1">
     <g id="line2d_3">
      <defs>
       <path id="m7c89ac1c36" d="M 0 0 
L 0 3.5 
" style="stroke: #000000; stroke-width: 0.8"/>
      </defs>
      <g>
       <use xlink:href="#m7c89ac1c36" x="50.687187" y="297.5625" style="stroke: #000000; stroke-width: 0.8"/>
      </g>
     </g>
     <g id="text_1">
      <text style="font-size: 8px; font-family: 'SimHei', 'Arial', 'DejaVu Sans', sans-serif; text-anchor: middle" x="50.687187" y="310.0625" transform="rotate(-0 50.687187 310.0625)">-3</text>
     </g>
    </g>
    <g id="xtick_2">
     <g id="line2d_4">
      <g>
       <use xlink:href="#m7c89ac1c36" x="84.849063" y="297.5625" style="stroke: #000000; stroke-width: 0.8"/>
      </g>
     </g>
     <g id="text_2">
      <text style="font-size: 8px; font-family: 'SimHei', 'Arial', 'DejaVu Sans', sans-serif; text-anchor: middle" x="84.849063" y="310.0625" transform="rotate(-0 84.849063 310.0625)">-2</text>
     </g>
    </g>
    <g id="xtick_3">
     <g id="line2d_5">
      <g>
       <use xlink:href="#m7c89ac1c36" x="119.010938" y="297.5625" style="stroke: #000000; stroke-width: 0.8"/>
      </g>
     </g>
     <g id="text_3">
      <text style="font-size: 8px; font-family: 'SimHei', 'Arial', 'DejaVu Sans', sans-serif; text-anchor: middle" x="119.010938" y="310.0625" transform="rotate(-0 119.010938 310.0625)">-1</text>
     </g>
    </g>
    <g id="xtick_4">
     <g id="line2d_6">
      <g>
       <use xlink:href="#m7c89ac1c36" x="153.172813" y="297.5625" style="stroke: #000000; stroke-width: 0.8"/>
      </g>
     </g>
     <g id="text_4">
      <text style="font-size: 8px; font-family: 'SimHei', 'Arial', 'DejaVu Sans', sans-serif; text-anchor: middle" x="153.172813" y="310.0625" transform="rotate(-0 153.172813 310.0625)">0</text>
     </g>
    </g>
    <g id="xtick_5">
     <g id="line2d_7">
      <g>
       <use xlink:href="#m7c89ac1c36" x="187.334688" y="297.5625" style="stroke: #000000; stroke-width: 0.8"/>
      </g>
     </g>
     <g id="text_5">
      <text style="font-size: 8px; font-family: 'SimHei', 'Arial', 'DejaVu Sans', sans-serif; text-anchor: middle" x="187.334688" y="310.0625" transform="rotate(-0 187.334688 310.0625)">1</text>
     </g>
    </g>
    <g id="xtick_6">
     <g id="line2d_8">
      <g>
       <use xlink:href="#m7c89ac1c36" x="221.496563" y="297.5625" style="stroke: #000000; stroke-width: 0.8"/>
      </g>
     </g>
     <g id="text_6">
      <text style="font-size: 8px; font-family: 'SimHei', 'Arial', 'DejaVu Sans', sans-serif; text-anchor: middle" x="221.496563" y="310.0625" transform="rotate(-0 221.496563 310.0625)">2</text>
     </g>
    </g>
    <g id="xtick_7">
     <g id="line2d_9">
      <g>
       <use xlink:href="#m7c89ac1c36" x="255.658438" y="297.5625" style="stroke: #000000; stroke-width: 0.8"/>
      </g>
     </g>
     <g id="text_7">
      <text style="font-size: 8px; font-family: 'SimHei', 'Arial', 'DejaVu Sans', sans-serif; text-anchor: middle" x="255.658438" y="310.0625" transform="rotate(-0 255.658438 310.0625)">3</text>
     </g>
    </g>
    <g id="xtick_8">
     <g id="line2d_10">
      <g>
       <use xlink:href="#m7c89ac1c36" x="289.820313" y="297.5625" style="stroke: #000000; stroke-width: 0.8"/>
      </g>
     </g>
     <g id="text_8">
      <text style="font-size: 8px; font-family: 'SimHei', 'Arial', 'DejaVu Sans', sans-serif; text-anchor: middle" x="289.820313" y="310.0625" transform="rotate(-0 289.820313 310.0625)">4</text>
     </g>
    </g>
    <g id="text_9">
     <text style="font-size: 8px; font-family: 'SimHei', 'Arial', 'DejaVu Sans', sans-serif; text-anchor: middle" x="170.25375" y="321.40625" transform="rotate(-0 170.25375 321.40625)">标准化得分 (z)</text>
    </g>
   </g>
   <g id="matplotlib.axis_2">
    <g id="ytick_1">
     <g id="line2d_11">
      <defs>
       <path id="m1242b54cb2" d="M 0 0 
L -3.5 0 
" style="stroke: #000000; stroke-width: 0.8"/>
      </defs>
      <g>
       <use xlink:href="#m1242b54cb2" x="33.60625" y="281.262679" style="stroke: #000000; stroke-width: 0.8"/>
      </g>
     </g>
     <g id="text_10">
      <text style="font-size: 8px; font-family: 'SimHei', 'Arial', 'DejaVu Sans', sans-serif; text-anchor: end" x="26.60625" y="284.012679" transform="rotate(-0 26.60625 284.012679)">-3</text>
     </g>
    </g>
    <g id="ytick_2">
     <g id="line2d_12">
      <g>
       <use xlink:href="#m1242b54cb2" x="33.60625" y="248.663036" style="stroke: #000000; stroke-width: 0.8"/>
      </g>
     </g>
     <g id="text_11">
      <text style="font-size: 8px; font-family: 'SimHei', 'Arial', 'DejaVu Sans', sans-serif; text-anchor: end" x="26.60625" y="251.413036" transform="rotate(-0 26.60625 251.413036)">-2</text>
     </g>
    </g>
    <g id="ytick_3">
     <g id="line2d_13">
      <g>
       <use xlink:href="#m1242b54cb2" x="33.60625" y="216.063393" style="stroke: #000000; stroke-width: 0.8"/>
      </g>
     </g>
     <g id="text_12">
      <text style="font-size: 8px; font-family: 'SimHei', 'Arial', 'DejaVu Sans', sans-serif; text-anchor: end" x="26.60625" y="218.813393" transform="rotate(-0 26.60625 218.813393)">-1</text>
     </g>
    </g>
    <g id="ytick_4">
     <g id="line2d_14">
      <g>
       <use xlink:href="#m1242b54cb2" x="33.60625" y="183.46375" style="stroke: #000000; stroke-width: 0.8"/>
      </g>
     </g>
     <g id="text_13">
      <text style="font-size: 8px; font-family: 'SimHei', 'Arial', 'DejaVu Sans', sans-serif; text-anchor: end" x="26.60625" y="186.21375" transform="rotate(-0 26.60625 186.21375)">0</text>
     </g>
    </g>
    <g id="ytick_5">
     <g id="line2d_15">
      <g>
       <use xlink:href="#m1242b54cb2" x="33.60625" y="150.864107" style="stroke: #000000; stroke-width: 0.8"/>
      </g>
     </g>
     <g id="text_14">
      <text style="font-size: 8px; font-family: 'SimHei', 'Arial', 'DejaVu Sans', sans-serif; text-anchor: end" x="26.60625" y="153.614107" transform="rotate(-0 26.60625 153.614107)">1</text>
     </g>
    </g>
    <g id="ytick_6">
     <g id="line2d_16">
      <g>
       <use xlink:href="#m1242b54cb2" x="33.60625" y="118.264464" style="stroke: #000000; stroke-width: 0.8"/>
      </g>
     </g>
     <g id="text_15">
      <text style="font-size: 8px; font-family: 'SimHei', 'Arial', 'DejaVu Sans', sans-serif; text-anchor: end" x="26.60625" y="121.014464" transform="rotate(-0 26.60625 121.014464)">2</text>
     </g>
    </g>
    <g id="ytick_7">
     <g id="line2d_17">
      <g>
       <use xlink:href="#m1242b54cb2" x="33.60625" y="85.664821" style="stroke: #000000; stroke-width: 0.8"/>
      </g>
     </g>
     <g id="text_16">
      <text style="font-size: 8px; font-family: 'SimHei', 'Arial', 'DejaVu Sans', sans-serif; text-anchor: end" x="26.60625" y="88.414821" transform="rotate(-0 26.60625 88.414821)">3</text>
     </g>
    </g>
    <g id="text_17">
     <text style="font-size: 8px; font-family: 'SimHei', 'Arial', 'DejaVu Sans', sans-serif; text-anchor: middle" x="13.60625" y="183.46375" transform="rotate(-90 13.60625 183.46375)">空间滞后 (Wz)</text>
    </g>
   </g>
   <g id="patch_3">
    <path d="M 33.60625 297.5625 
L 33.60625 69.365 
" style="fill: none; stroke: #000000; stroke-width: 0.7; stroke-linejoin: miter; stroke-linecap: square"/>
   </g>
   <g id="patch_4">
    <path d="M 33.60625 297.5625 
L 306.90125 297.5625 
" style="fill: none; stroke: #000000; stroke-width: 0.7; stroke-linejoin: miter; stroke-linecap: square"/>
   </g>
   <g id="line2d_18">
    <path d="M 33.60625 233.805899 
L 306.90125 122.067881 
" clip-path="url(#p7c11729f35)" style="fill: none; stroke: #b64342; stroke-width: 1.5; stroke-linecap: square"/>
   </g>
   <g id="text_18">
    <text style="font-size: 6px; font-family: 'SimHei', 'Arial', 'DejaVu Sans', sans-serif; text-anchor: start; fill: #272727" x="259.625344" y="160.41482" transform="rotate(-0 259.625344 160.41482)">北京</text>
   </g>
   <g id="text_19">
    <text style="font-size: 6px; font-family: 'SimHei', 'Arial', 'DejaVu Sans', sans-serif; text-anchor: start; fill: #272727" x="232.35087" y="127.381615" transform="rotate(-0 232.35087 127.381615)">上海</text>
   </g>
   <g id="text_20">
    <text style="font-size: 6px; font-family: 'SimHei', 'Arial', 'DejaVu Sans', sans-serif; text-anchor: start; fill: #272727" x="215.481832" y="149.745566" transform="rotate(-0 215.481832 149.745566)">江苏</text>
   </g>
   <g id="text_21">
    <text style="font-size: 6px; font-family: 'SimHei', 'Arial', 'DejaVu Sans', sans-serif; text-anchor: start; fill: #272727" x="210.019798" y="158.099133" transform="rotate(-0 210.019798 158.099133)">浙江</text>
   </g>
   <g id="text_22">
    <text style="font-size: 6px; font-family: 'SimHei', 'Arial', 'DejaVu Sans', sans-serif; text-anchor: start; fill: #272727" x="201.689872" y="192.216239" transform="rotate(-0 201.689872 192.216239)">广东</text>
   </g>
   <g id="text_23">
    <text style="font-size: 6px; font-family: 'SimHei', 'Arial', 'DejaVu Sans', sans-serif; text-anchor: start; fill: #272727" x="129.846211" y="196.6596" transform="rotate(-0 129.846211 196.6596)">贵州</text>
   </g>
   <g id="text_24">
    <text style="font-size: 6px; font-family: 'SimHei', 'Arial', 'DejaVu Sans', sans-serif; text-anchor: start; fill: #272727" x="130.976992" y="202.0072" transform="rotate(-0 130.976992 202.0072)">西藏</text>
   </g>
   <g id="text_25">
    <text style="font-size: 6px; font-family: 'SimHei', 'Arial', 'DejaVu Sans', sans-serif; text-anchor: start; fill: #272727" x="131.828078" y="197.407309" transform="rotate(-0 131.828078 197.407309)">甘肃</text>
   </g>
   <g id="text_26">
    <text style="font-size: 6px; font-family: 'SimHei', 'Arial', 'DejaVu Sans', sans-serif; text-anchor: start; fill: #272727" x="132.914944" y="202.303561" transform="rotate(-0 132.914944 202.303561)">青海</text>
   </g>
   <g id="text_27">
    <text style="font-weight: 700; font-size: 7px; font-family: 'SimHei', 'Arial', 'DejaVu Sans', sans-serif; text-anchor: middle; fill: #767676" x="255.658438" y="85.664821" transform="rotate(-0 255.658438 85.664821)">HH</text>
   </g>
   <g id="text_28">
    <text style="font-weight: 700; font-size: 7px; font-family: 'SimHei', 'Arial', 'DejaVu Sans', sans-serif; text-anchor: middle; fill: #767676" x="67.768125" y="85.664821" transform="rotate(-0 67.768125 85.664821)">LH</text>
   </g>
   <g id="text_29">
    <text style="font-weight: 700; font-size: 7px; font-family: 'SimHei', 'Arial', 'DejaVu Sans', sans-serif; text-anchor: middle; fill: #767676" x="67.768125" y="274.74275" transform="rotate(-0 67.768125 274.74275)">LL</text>
   </g>
   <g id="text_30">
    <text style="font-weight: 700; font-size: 7px; font-family: 'SimHei', 'Arial', 'DejaVu Sans', sans-serif; text-anchor: middle; fill: #767676" x="255.658438" y="274.74275" transform="rotate(-0 255.658438 274.74275)">HL</text>
   </g>
   <g id="text_31">
    <g id="patch_5">
     <path d="M 41.8051 90.746862 
L 101.3051 90.746862 
Q 103.4051 90.746862 103.4051 88.646862 
L 103.4051 76.210925 
Q 103.4051 74.110925 101.3051 74.110925 
L 41.8051 74.110925 
Q 39.7051 74.110925 39.7051 76.210925 
L 39.7051 88.646862 
Q 39.7051 90.746862 41.8051 90.746862 
z
" style="fill: #ffffff; opacity: 0.85; stroke: #dddddd; stroke-linejoin: miter"/>
    </g>
    <text style="font-size: 7px; font-family: 'SimHei', 'Arial', 'DejaVu Sans', sans-serif" transform="translate(41.8051 81.023425)">Moran's I = 0.428</text>
    <text style="font-size: 7px; font-family: 'SimHei', 'Arial', 'DejaVu Sans', sans-serif" transform="translate(41.8051 87.771862)">p = 0.0001</text>
   </g>
   <g id="text_32">
    <text style="font-weight: 700; font-size: 9px; font-family: 'SimHei', 'Arial', 'DejaVu Sans', sans-serif; text-anchor: middle; fill: #272727" x="170.25375" y="63.365" transform="rotate(-0 170.25375 63.365)">2011 年</text>
   </g>
   <g id="PathCollection_1">
    <path d="M 254.625344 168.12292 
C 255.608743 168.12292 256.551997 167.732211 257.247366 167.036843 
C 257.942734 166.341474 258.333443 165.39822 258.333443 164.41482 
C 258.333443 163.431421 257.942734 162.488167 257.247366 161.792798 
C 256.551997 161.09743 255.608743 160.706721 254.625344 160.706721 
C 253.641944 160.706721 252.69869 161.09743 252.003322 161.792798 
C 251.307953 162.488167 250.917245 163.431421 250.917245 164.41482 
C 250.917245 165.39822 251.307953 166.341474 252.003322 167.036843 
C 252.69869 167.732211 253.641944 168.12292 254.625344 168.12292 
z
" clip-path="url(#p7c11729f35)" style="fill: #b64342; stroke: #ffffff; stroke-width: 0.5"/>
    <path d="M 211.706544 146.894805 
C 212.491026 146.894805 213.243482 146.583127 213.798195 146.028415 
C 214.352907 145.473703 214.664584 144.721246 214.664584 143.936765 
C 214.664584 143.152284 214.352907 142.399827 213.798195 141.845115 
C 213.243482 141.290403 212.491026 140.978725 211.706544 140.978725 
C 210.922063 140.978725 210.169606 141.290403 209.614894 141.845115 
C 209.060182 142.399827 208.748505 143.152284 208.748505 143.936765 
C 208.748505 144.721246 209.060182 145.473703 209.614894 146.028415 
C 210.169606 146.583127 210.922063 146.894805 211.706544 146.894805 
z
" clip-path="url(#p7c11729f35)" style="fill: #b64342; stroke: #ffffff; stroke-width: 0.5"/>
    <path d="M 134.562656 169.408055 
C 135.347137 169.408055 136.099594 169.096377 136.654306 168.541665 
C 137.209018 167.986953 137.520696 167.234496 137.520696 166.450015 
C 137.520696 165.665534 137.209018 164.913077 136.654306 164.358365 
C 136.099594 163.803653 135.347137 163.491975 134.562656 163.491975 
C 133.778175 163.491975 133.025718 163.803653 132.471006 164.358365 
C 131.916294 164.913077 131.604616 165.665534 131.604616 166.450015 
C 131.604616 167.234496 131.916294 167.986953 132.471006 168.541665 
C 133.025718 169.096377 133.778175 169.408055 134.562656 169.408055 
z
" clip-path="url(#p7c11729f35)" style="fill: #0f4d92; stroke: #ffffff; stroke-width: 0.5"/>
    <path d="M 136.674284 201.153293 
C 137.458765 201.153293 138.211222 200.841615 138.765934 200.286903 
C 139.320646 199.732191 139.632324 198.979734 139.632324 198.195253 
C 139.632324 197.410771 139.320646 196.658315 138.765934 196.103603 
C 138.211222 195.548891 137.458765 195.237213 136.674284 195.237213 
C 135.889803 195.237213 135.137346 195.548891 134.582634 196.103603 
C 134.027922 196.658315 133.716244 197.410771 133.716244 198.195253 
C 133.716244 198.979734 134.027922 199.732191 134.582634 200.286903 
C 135.137346 200.841615 135.889803 201.153293 136.674284 201.153293 
z
" clip-path="url(#p7c11729f35)" style="fill: #767676; stroke: #ffffff; stroke-width: 0.5"/>
    <path d="M 137.643795 200.809501 
C 138.428277 200.809501 139.180733 200.497823 139.735445 199.943111 
C 140.290157 199.388399 140.601835 198.635942 140.601835 197.851461 
C 140.601835 197.066979 140.290157 196.314523 139.735445 195.759811 
C 139.180733 195.205099 138.428277 194.893421 137.643795 194.893421 
C 136.859314 194.893421 136.106857 195.205099 135.552145 195.759811 
C 134.997433 196.314523 134.685755 197.066979 134.685755 197.851461 
C 134.685755 198.635942 134.997433 199.388399 135.552145 199.943111 
C 136.106857 200.497823 136.859314 200.809501 137.643795 200.809501 
z
" clip-path="url(#p7c11729f35)" style="fill: #767676; stroke: #ffffff; stroke-width: 0.5"/>
    <path d="M 157.451873 203.052208 
C 158.236354 203.052208 158.988811 202.740531 159.543523 202.185818 
C 160.098235 201.631106 160.409913 200.87865 160.409913 200.094168 
C 160.409913 199.309687 160.098235 198.55723 159.543523 198.002518 
C 158.988811 197.447806 158.236354 197.136129 157.451873 197.136129 
C 156.667391 197.136129 155.914935 197.447806 155.360223 198.002518 
C 154.805511 198.55723 154.493833 199.309687 154.493833 200.094168 
C 154.493833 200.87865 154.805511 201.631106 155.360223 202.185818 
C 155.914935 202.740531 156.667391 203.052208 157.451873 203.052208 
z
" clip-path="url(#p7c11729f35)" style="fill: #767676; stroke: #ffffff; stroke-width: 0.5"/>
    <path d="M 135.029854 194.918987 
C 135.814336 194.918987 136.566792 194.60731 137.121504 194.052598 
C 137.676216 193.497886 137.987894 192.745429 137.987894 191.960948 
C 137.987894 191.176466 137.676216 190.42401 137.121504 189.869297 
C 136.566792 189.314585 135.814336 189.002908 135.029854 189.002908 
C 134.245373 189.002908 133.492916 189.314585 132.938204 189.869297 
C 132.383492 190.42401 132.071814 191.176466 132.071814 191.960948 
C 132.071814 192.745429 132.383492 193.497886 132.938204 194.052598 
C 133.492916 194.60731 134.245373 194.918987 135.029854 194.918987 
z
" clip-path="url(#p7c11729f35)" style="fill: #0f4d92; stroke: #ffffff; stroke-width: 0.5"/>
    <path d="M 137.709575 202.487863 
C 138.494056 202.487863 139.246513 202.176185 139.801225 201.621473 
C 140.355937 201.066761 140.667615 200.314305 140.667615 199.529823 
C 140.667615 198.745342 140.355937 197.992885 139.801225 197.438173 
C 139.246513 196.883461 138.494056 196.571783 137.709575 196.571783 
C 136.925094 196.571783 136.172637 196.883461 135.617925 197.438173 
C 135.063213 197.992885 134.751535 198.745342 134.751535 199.529823 
C 134.751535 200.314305 135.063213 201.066761 135.617925 201.621473 
C 136.172637 202.176185 136.925094 202.487863 137.709575 202.487863 
z
" clip-path="url(#p7c11729f35)" style="fill: #767676; stroke: #ffffff; stroke-width: 0.5"/>
    <path d="M 227.35087 135.089714 
C 228.33427 135.089714 229.277524 134.699005 229.972892 134.003637 
C 230.668261 133.308269 231.05897 132.365014 231.05897 131.381615 
C 231.05897 130.398215 230.668261 129.454961 229.972892 128.759593 
C 229.277524 128.064224 228.33427 127.673516 227.35087 127.673516 
C 226.367471 127.673516 225.424217 128.064224 224.728848 128.759593 
C 224.03348 129.454961 223.642771 130.398215 223.642771 131.381615 
C 223.642771 132.365014 224.03348 133.308269 224.728848 134.003637 
C 225.424217 134.699005 226.367471 135.089714 227.35087 135.089714 
z
" clip-path="url(#p7c11729f35)" style="fill: #b64342; stroke: #ffffff; stroke-width: 0.5"/>
    <path d="M 210.481832 157.453665 
C 211.465231 157.453665 212.408485 157.062957 213.103854 156.367588 
C 213.799222 155.67222 214.189931 154.728966 214.189931 153.745566 
C 214.189931 152.762167 213.799222 151.818913 213.103854 151.123544 
C 212.408485 150.428176 211.465231 150.037467 210.481832 150.037467 
C 209.498432 150.037467 208.555178 150.428176 207.859809 151.123544 
C 207.164441 151.818913 206.773732 152.762167 206.773732 153.745566 
C 206.773732 154.728966 207.164441 155.67222 207.859809 156.367588 
C 208.555178 157.062957 209.498432 157.453665 210.481832 157.453665 
z
" clip-path="url(#p7c11729f35)" style="fill: #b64342; stroke: #ffffff; stroke-width: 0.5"/>
    <path d="M 205.019798 165.807232 
C 206.003198 165.807232 206.946452 165.416523 207.641821 164.721155 
C 208.337189 164.025787 208.727898 163.082532 208.727898 162.099133 
C 208.727898 161.115733 208.337189 160.172479 207.641821 159.477111 
C 206.946452 158.781742 206.003198 158.391034 205.019798 158.391034 
C 204.036399 158.391034 203.093145 158.781742 202.397776 159.477111 
C 201.702408 160.172479 201.311699 161.115733 201.311699 162.099133 
C 201.311699 163.082532 201.702408 164.025787 202.397776 164.721155 
C 203.093145 165.416523 204.036399 165.807232 205.019798 165.807232 
z
" clip-path="url(#p7c11729f35)" style="fill: #b64342; stroke: #ffffff; stroke-width: 0.5"/>
    <path d="M 141.519782 175.023945 
C 142.304263 175.023945 143.05672 174.712268 143.611432 174.157555 
C 144.166144 173.602843 144.477822 172.850387 144.477822 172.065905 
C 144.477822 171.281424 144.166144 170.528967 143.611432 169.974255 
C 143.05672 169.419543 142.304263 169.107866 141.519782 169.107866 
C 140.735301 169.107866 139.982844 169.419543 139.428132 169.974255 
C 138.87342 170.528967 138.561742 171.281424 138.561742 172.065905 
C 138.561742 172.850387 138.87342 173.602843 139.428132 174.157555 
C 139.982844 174.712268 140.735301 175.023945 141.519782 175.023945 
z
" clip-path="url(#p7c11729f35)" style="fill: #0f4d92; stroke: #ffffff; stroke-width: 0.5"/>
    <path d="M 168.34257 163.423102 
C 169.127052 163.423102 169.879508 163.111424 170.43422 162.556712 
C 170.988932 162.002 171.30061 161.249543 171.30061 160.465062 
C 171.30061 159.68058 170.988932 158.928124 170.43422 158.373412 
C 169.879508 157.8187 169.127052 157.507022 168.34257 157.507022 
C 167.558089 157.507022 166.805632 157.8187 166.25092 158.373412 
C 165.696208 158.928124 165.38453 159.68058 165.38453 160.465062 
C 165.38453 161.249543 165.696208 162.002 166.25092 162.556712 
C 166.805632 163.111424 167.558089 163.423102 168.34257 163.423102 
z
" clip-path="url(#p7c11729f35)" style="fill: #b64342; stroke: #ffffff; stroke-width: 0.5"/>
    <path d="M 130.111244 174.127339 
C 130.895726 174.127339 131.648182 173.815661 132.202894 173.260949 
C 132.757606 172.706237 133.069284 171.953781 133.069284 171.169299 
C 133.069284 170.384818 132.757606 169.632361 132.202894 169.077649 
C 131.648182 168.522937 130.895726 168.211259 130.111244 168.211259 
C 129.326763 168.211259 128.574306 168.522937 128.019594 169.077649 
C 127.464882 169.632361 127.153204 170.384818 127.153204 171.169299 
C 127.153204 171.953781 127.464882 172.706237 128.019594 173.260949 
C 128.574306 173.815661 129.326763 174.127339 130.111244 174.127339 
z
" clip-path="url(#p7c11729f35)" style="fill: #0f4d92; stroke: #ffffff; stroke-width: 0.5"/>
    <path d="M 163.370125 184.175873 
C 164.154606 184.175873 164.907063 183.864195 165.461775 183.309483 
C 166.016487 182.754771 166.328164 182.002314 166.328164 181.217833 
C 166.328164 180.433351 166.016487 179.680895 165.461775 179.126183 
C 164.907063 178.57147 164.154606 178.259793 163.370125 178.259793 
C 162.585643 178.259793 161.833187 178.57147 161.278474 179.126183 
C 160.723762 179.680895 160.412085 180.433351 160.412085 181.217833 
C 160.412085 182.002314 160.723762 182.754771 161.278474 183.309483 
C 161.833187 183.864195 162.585643 184.175873 163.370125 184.175873 
z
" clip-path="url(#p7c11729f35)" style="fill: #b64342; stroke: #ffffff; stroke-width: 0.5"/>
    <path d="M 135.541163 194.936935 
C 136.325644 194.936935 137.078101 194.625257 137.632813 194.070545 
C 138.187525 193.515833 138.499203 192.763376 138.499203 191.978895 
C 138.499203 191.194413 138.187525 190.441957 137.632813 189.887245 
C 137.078101 189.332533 136.325644 189.020855 135.541163 189.020855 
C 134.756682 189.020855 134.004225 189.332533 133.449513 189.887245 
C 132.894801 190.441957 132.583123 191.194413 132.583123 191.978895 
C 132.583123 192.763376 132.894801 193.515833 133.449513 194.070545 
C 134.004225 194.625257 134.756682 194.936935 135.541163 194.936935 
z
" clip-path="url(#p7c11729f35)" style="fill: #0f4d92; stroke: #ffffff; stroke-width: 0.5"/>
    <path d="M 146.177009 199.889809 
C 146.96149 199.889809 147.713947 199.578131 148.268659 199.023419 
C 148.823371 198.468707 149.135049 197.716251 149.135049 196.931769 
C 149.135049 196.147288 148.823371 195.394831 148.268659 194.840119 
C 147.713947 194.285407 146.96149 193.973729 146.177009 193.973729 
C 145.392528 193.973729 144.640071 194.285407 144.085359 194.840119 
C 143.530647 195.394831 143.218969 196.147288 143.218969 196.931769 
C 143.218969 197.716251 143.530647 198.468707 144.085359 199.023419 
C 144.640071 199.578131 145.392528 199.889809 146.177009 199.889809 
z
" clip-path="url(#p7c11729f35)" style="fill: #767676; stroke: #ffffff; stroke-width: 0.5"/>
    <path d="M 138.589578 193.784736 
C 139.37406 193.784736 140.126516 193.473059 140.681229 192.918346 
C 141.235941 192.363634 141.547618 191.611178 141.547618 190.826696 
C 141.547618 190.042215 141.235941 189.289758 140.681229 188.735046 
C 140.126516 188.180334 139.37406 187.868657 138.589578 187.868657 
C 137.805097 187.868657 137.05264 188.180334 136.497928 188.735046 
C 135.943216 189.289758 135.631539 190.042215 135.631539 190.826696 
C 135.631539 191.611178 135.943216 192.363634 136.497928 192.918346 
C 137.05264 193.473059 137.805097 193.784736 138.589578 193.784736 
z
" clip-path="url(#p7c11729f35)" style="fill: #0f4d92; stroke: #ffffff; stroke-width: 0.5"/>
    <path d="M 196.689872 199.924338 
C 197.673271 199.924338 198.616526 199.533629 199.311894 198.838261 
C 200.007263 198.142892 200.397971 197.199638 200.397971 196.216239 
C 200.397971 195.232839 200.007263 194.289585 199.311894 193.594217 
C 198.616526 192.898848 197.673271 192.508139 196.689872 192.508139 
C 195.706473 192.508139 194.763218 192.898848 194.06785 193.594217 
C 193.372482 194.289585 192.981773 195.232839 192.981773 196.216239 
C 192.981773 197.199638 193.372482 198.142892 194.06785 198.838261 
C 194.763218 199.533629 195.706473 199.924338 196.689872 199.924338 
z
" clip-path="url(#p7c11729f35)" style="fill: #b64342; stroke: #ffffff; stroke-width: 0.5"/>
    <path d="M 129.51705 192.727893 
C 130.301532 192.727893 131.053988 192.416215 131.6087 191.861503 
C 132.163412 191.306791 132.47509 190.554334 132.47509 189.769853 
C 132.47509 188.985372 132.163412 188.232915 131.6087 187.678203 
C 131.053988 187.123491 130.301532 186.811813 129.51705 186.811813 
C 128.732569 186.811813 127.980112 187.123491 127.4254 187.678203 
C 126.870688 188.232915 126.55901 188.985372 126.55901 189.769853 
C 126.55901 190.554334 126.870688 191.306791 127.4254 191.861503 
C 127.980112 192.416215 128.732569 192.727893 129.51705 192.727893 
z
" clip-path="url(#p7c11729f35)" style="fill: #0f4d92; stroke: #ffffff; stroke-width: 0.5"/>
    <path d="M 132.485568 144.894778 
C 133.270049 144.894778 134.022506 144.5831 134.577218 144.028388 
C 135.13193 143.473676 135.443608 142.721219 135.443608 141.936738 
C 135.443608 141.152256 135.13193 140.3998 134.577218 139.845088 
C 134.022506 139.290376 133.270049 138.978698 132.485568 138.978698 
C 131.701086 138.978698 130.94863 139.290376 130.393918 139.845088 
C 129.839206 140.3998 129.527528 141.152256 129.527528 141.936738 
C 129.527528 142.721219 129.839206 143.473676 130.393918 144.028388 
C 130.94863 144.5831 131.701086 144.894778 132.485568 144.894778 
z
" clip-path="url(#p7c11729f35)" style="fill: #0f4d92; stroke: #ffffff; stroke-width: 0.5"/>
    <path d="M 145.400738 201.104697 
C 146.185219 201.104697 146.937676 200.793019 147.492388 200.238307 
C 148.0471 199.683595 148.358778 198.931138 148.358778 198.146657 
C 148.358778 197.362176 148.0471 196.609719 147.492388 196.055007 
C 146.937676 195.500295 146.185219 195.188617 145.400738 195.188617 
C 144.616257 195.188617 143.8638 195.500295 143.309088 196.055007 
C 142.754376 196.609719 142.442698 197.362176 142.442698 198.146657 
C 142.442698 198.931138 142.754376 199.683595 143.309088 200.238307 
C 143.8638 200.793019 144.616257 201.104697 145.400738 201.104697 
z
" clip-path="url(#p7c11729f35)" style="fill: #767676; stroke: #ffffff; stroke-width: 0.5"/>
    <path d="M 136.124789 207.1317 
C 136.90927 207.1317 137.661727 206.820023 138.216439 206.265311 
C 138.771151 205.710599 139.082829 204.958142 139.082829 204.173661 
C 139.082829 203.389179 138.771151 202.636723 138.216439 202.08201 
C 137.661727 201.527298 136.90927 201.215621 136.124789 201.215621 
C 135.340307 201.215621 134.587851 201.527298 134.033139 202.08201 
C 133.478427 202.636723 133.166749 203.389179 133.166749 204.173661 
C 133.166749 204.958142 133.478427 205.710599 134.033139 206.265311 
C 134.587851 206.820023 135.340307 207.1317 136.124789 207.1317 
z
" clip-path="url(#p7c11729f35)" style="fill: #767676; stroke: #ffffff; stroke-width: 0.5"/>
    <path d="M 124.846211 203.61764 
C 125.630692 203.61764 126.383149 203.305963 126.937861 202.75125 
C 127.492573 202.196538 127.804251 201.444082 127.804251 200.6596 
C 127.804251 199.875119 127.492573 199.122662 126.937861 198.56795 
C 126.383149 198.013238 125.630692 197.701561 124.846211 197.701561 
C 124.06173 197.701561 123.309273 198.013238 122.754561 198.56795 
C 122.199849 199.122662 121.888171 199.875119 121.888171 200.6596 
C 121.888171 201.444082 122.199849 202.196538 122.754561 202.75125 
C 123.309273 203.305963 124.06173 203.61764 124.846211 203.61764 
z
" clip-path="url(#p7c11729f35)" style="fill: #767676; stroke: #ffffff; stroke-width: 0.5"/>
    <path d="M 126.132378 209.378229 
C 126.916859 209.378229 127.669316 209.066551 128.224028 208.511839 
C 128.77874 207.957127 129.090418 207.204671 129.090418 206.420189 
C 129.090418 205.635708 128.77874 204.883251 128.224028 204.328539 
C 127.669316 203.773827 126.916859 203.462149 126.132378 203.462149 
C 125.347897 203.462149 124.59544 203.773827 124.040728 204.328539 
C 123.486016 204.883251 123.174338 205.635708 123.174338 206.420189 
C 123.174338 207.204671 123.486016 207.957127 124.040728 208.511839 
C 124.59544 209.066551 125.347897 209.378229 126.132378 209.378229 
z
" clip-path="url(#p7c11729f35)" style="fill: #767676; stroke: #ffffff; stroke-width: 0.5"/>
    <path d="M 125.976992 208.96524 
C 126.761473 208.96524 127.51393 208.653562 128.068642 208.09885 
C 128.623354 207.544138 128.935031 206.791682 128.935031 206.0072 
C 128.935031 205.222719 128.623354 204.470262 128.068642 203.91555 
C 127.51393 203.360838 126.761473 203.04916 125.976992 203.04916 
C 125.19251 203.04916 124.440054 203.360838 123.885341 203.91555 
C 123.330629 204.470262 123.018952 205.222719 123.018952 206.0072 
C 123.018952 206.791682 123.330629 207.544138 123.885341 208.09885 
C 124.440054 208.653562 125.19251 208.96524 125.976992 208.96524 
z
" clip-path="url(#p7c11729f35)" style="fill: #767676; stroke: #ffffff; stroke-width: 0.5"/>
    <path d="M 143.193786 201.651674 
C 143.978268 201.651674 144.730724 201.339996 145.285436 200.785284 
C 145.840148 200.230572 146.151826 199.478115 146.151826 198.693634 
C 146.151826 197.909152 145.840148 197.156696 145.285436 196.601984 
C 144.730724 196.047271 143.978268 195.735594 143.193786 195.735594 
C 142.409305 195.735594 141.656848 196.047271 141.102136 196.601984 
C 140.547424 197.156696 140.235746 197.909152 140.235746 198.693634 
C 140.235746 199.478115 140.547424 200.230572 141.102136 200.785284 
C 141.656848 201.339996 142.409305 201.651674 143.193786 201.651674 
z
" clip-path="url(#p7c11729f35)" style="fill: #767676; stroke: #ffffff; stroke-width: 0.5"/>
    <path d="M 126.828078 204.365349 
C 127.612559 204.365349 128.365016 204.053671 128.919728 203.498959 
C 129.47444 202.944247 129.786118 202.191791 129.786118 201.407309 
C 129.786118 200.622828 129.47444 199.870371 128.919728 199.315659 
C 128.365016 198.760947 127.612559 198.449269 126.828078 198.449269 
C 126.043597 198.449269 125.29114 198.760947 124.736428 199.315659 
C 124.181716 199.870371 123.870038 200.622828 123.870038 201.407309 
C 123.870038 202.191791 124.181716 202.944247 124.736428 203.498959 
C 125.29114 204.053671 126.043597 204.365349 126.828078 204.365349 
z
" clip-path="url(#p7c11729f35)" style="fill: #767676; stroke: #ffffff; stroke-width: 0.5"/>
    <path d="M 127.914944 209.261601 
C 128.699425 209.261601 129.451882 208.949923 130.006594 208.395211 
C 130.561306 207.840499 130.872984 207.088043 130.872984 206.303561 
C 130.872984 205.51908 130.561306 204.766623 130.006594 204.211911 
C 129.451882 203.657199 128.699425 203.345521 127.914944 203.345521 
C 127.130463 203.345521 126.378006 203.657199 125.823294 204.211911 
C 125.268582 204.766623 124.956904 205.51908 124.956904 206.303561 
C 124.956904 207.088043 125.268582 207.840499 125.823294 208.395211 
C 126.378006 208.949923 127.130463 209.261601 127.914944 209.261601 
z
" clip-path="url(#p7c11729f35)" style="fill: #767676; stroke: #ffffff; stroke-width: 0.5"/>
    <path d="M 133.314833 202.915635 
C 134.099314 202.915635 134.851771 202.603957 135.406483 202.049245 
C 135.961195 201.494533 136.272872 200.742077 136.272872 199.957595 
C 136.272872 199.173114 135.961195 198.420657 135.406483 197.865945 
C 134.851771 197.311233 134.099314 196.999555 133.314833 196.999555 
C 132.530351 196.999555 131.777895 197.311233 131.223183 197.865945 
C 130.66847 198.420657 130.356793 199.173114 130.356793 199.957595 
C 130.356793 200.742077 130.66847 201.494533 131.223183 202.049245 
C 131.777895 202.603957 132.530351 202.915635 133.314833 202.915635 
z
" clip-path="url(#p7c11729f35)" style="fill: #767676; stroke: #ffffff; stroke-width: 0.5"/>
    <path d="M 128.024052 211.486773 
C 128.808533 211.486773 129.56099 211.175096 130.115702 210.620383 
C 130.670414 210.065671 130.982091 209.313215 130.982091 208.528733 
C 130.982091 207.744252 130.670414 206.991795 130.115702 206.437083 
C 129.56099 205.882371 128.808533 205.570693 128.024052 205.570693 
C 127.23957 205.570693 126.487114 205.882371 125.932402 206.437083 
C 125.377689 206.991795 125.066012 207.744252 125.066012 208.528733 
C 125.066012 209.313215 125.377689 210.065671 125.932402 210.620383 
C 126.487114 211.175096 127.23957 211.486773 128.024052 211.486773 
z
" clip-path="url(#p7c11729f35)" style="fill: #767676; stroke: #ffffff; stroke-width: 0.5"/>
   </g>
  </g>
  <g id="axes_2">
   <g id="patch_6">
    <path d="M 349.60625 297.5625 
L 622.90125 297.5625 
L 622.90125 69.365 
L 349.60625 69.365 
z
" style="fill: #ffffff"/>
   </g>
   <g id="line2d_19">
    <path d="M 349.60625 183.46375 
L 622.90125 183.46375 
" clip-path="url(#p49b1c24105)" style="fill: none; stroke: #767676; stroke-width: 0.5; stroke-linecap: square"/>
   </g>
   <g id="line2d_20">
    <path d="M 469.172813 297.5625 
L 469.172813 69.365 
" clip-path="url(#p49b1c24105)" style="fill: none; stroke: #767676; stroke-width: 0.5; stroke-linecap: square"/>
   </g>
   <g id="matplotlib.axis_3">
    <g id="xtick_9">
     <g id="line2d_21">
      <g>
       <use xlink:href="#m7c89ac1c36" x="366.687188" y="297.5625" style="stroke: #000000; stroke-width: 0.8"/>
      </g>
     </g>
     <g id="text_33">
      <text style="font-size: 8px; font-family: 'SimHei', 'Arial', 'DejaVu Sans', sans-serif; text-anchor: middle" x="366.687188" y="310.0625" transform="rotate(-0 366.687188 310.0625)">-3</text>
     </g>
    </g>
    <g id="xtick_10">
     <g id="line2d_22">
      <g>
       <use xlink:href="#m7c89ac1c36" x="400.849063" y="297.5625" style="stroke: #000000; stroke-width: 0.8"/>
      </g>
     </g>
     <g id="text_34">
      <text style="font-size: 8px; font-family: 'SimHei', 'Arial', 'DejaVu Sans', sans-serif; text-anchor: middle" x="400.849063" y="310.0625" transform="rotate(-0 400.849063 310.0625)">-2</text>
     </g>
    </g>
    <g id="xtick_11">
     <g id="line2d_23">
      <g>
       <use xlink:href="#m7c89ac1c36" x="435.010938" y="297.5625" style="stroke: #000000; stroke-width: 0.8"/>
      </g>
     </g>
     <g id="text_35">
      <text style="font-size: 8px; font-family: 'SimHei', 'Arial', 'DejaVu Sans', sans-serif; text-anchor: middle" x="435.010938" y="310.0625" transform="rotate(-0 435.010938 310.0625)">-1</text>
     </g>
    </g>
    <g id="xtick_12">
     <g id="line2d_24">
      <g>
       <use xlink:href="#m7c89ac1c36" x="469.172813" y="297.5625" style="stroke: #000000; stroke-width: 0.8"/>
      </g>
     </g>
     <g id="text_36">
      <text style="font-size: 8px; font-family: 'SimHei', 'Arial', 'DejaVu Sans', sans-serif; text-anchor: middle" x="469.172813" y="310.0625" transform="rotate(-0 469.172813 310.0625)">0</text>
     </g>
    </g>
    <g id="xtick_13">
     <g id="line2d_25">
      <g>
       <use xlink:href="#m7c89ac1c36" x="503.334688" y="297.5625" style="stroke: #000000; stroke-width: 0.8"/>
      </g>
     </g>
     <g id="text_37">
      <text style="font-size: 8px; font-family: 'SimHei', 'Arial', 'DejaVu Sans', sans-serif; text-anchor: middle" x="503.334688" y="310.0625" transform="rotate(-0 503.334688 310.0625)">1</text>
     </g>
    </g>
    <g id="xtick_14">
     <g id="line2d_26">
      <g>
       <use xlink:href="#m7c89ac1c36" x="537.496562" y="297.5625" style="stroke: #000000; stroke-width: 0.8"/>
      </g>
     </g>
     <g id="text_38">
      <text style="font-size: 8px; font-family: 'SimHei', 'Arial', 'DejaVu Sans', sans-serif; text-anchor: middle" x="537.496562" y="310.0625" transform="rotate(-0 537.496562 310.0625)">2</text>
     </g>
    </g>
    <g id="xtick_15">
     <g id="line2d_27">
      <g>
       <use xlink:href="#m7c89ac1c36" x="571.658437" y="297.5625" style="stroke: #000000; stroke-width: 0.8"/>
      </g>
     </g>
     <g id="text_39">
      <text style="font-size: 8px; font-family: 'SimHei', 'Arial', 'DejaVu Sans', sans-serif; text-anchor: middle" x="571.658437" y="310.0625" transform="rotate(-0 571.658437 310.0625)">3</text>
     </g>
    </g>
    <g id="xtick_16">
     <g id="line2d_28">
      <g>
       <use xlink:href="#m7c89ac1c36" x="605.820312" y="297.5625" style="stroke: #000000; stroke-width: 0.8"/>
      </g>
     </g>
     <g id="text_40">
      <text style="font-size: 8px; font-family: 'SimHei', 'Arial', 'DejaVu Sans', sans-serif; text-anchor: middle" x="605.820312" y="310.0625" transform="rotate(-0 605.820312 310.0625)">4</text>
     </g>
    </g>
    <g id="text_41">
     <text style="font-size: 8px; font-family: 'SimHei', 'Arial', 'DejaVu Sans', sans-serif; text-anchor: middle" x="486.25375" y="321.40625" transform="rotate(-0 486.25375 321.40625)">标准化得分 (z)</text>
    </g>
   </g>
   <g id="matplotlib.axis_4">
    <g id="ytick_8">
     <g id="line2d_29">
      <g>
       <use xlink:href="#m1242b54cb2" x="349.60625" y="281.262679" style="stroke: #000000; stroke-width: 0.8"/>
      </g>
     </g>
     <g id="text_42">
      <text style="font-size: 8px; font-family: 'SimHei', 'Arial', 'DejaVu Sans', sans-serif; text-anchor: end" x="342.60625" y="284.012679" transform="rotate(-0 342.60625 284.012679)">-3</text>
     </g>
    </g>
    <g id="ytick_9">
     <g id="line2d_30">
      <g>
       <use xlink:href="#m1242b54cb2" x="349.60625" y="248.663036" style="stroke: #000000; stroke-width: 0.8"/>
      </g>
     </g>
     <g id="text_43">
      <text style="font-size: 8px; font-family: 'SimHei', 'Arial', 'DejaVu Sans', sans-serif; text-anchor: end" x="342.60625" y="251.413036" transform="rotate(-0 342.60625 251.413036)">-2</text>
     </g>
    </g>
    <g id="ytick_10">
     <g id="line2d_31">
      <g>
       <use xlink:href="#m1242b54cb2" x="349.60625" y="216.063393" style="stroke: #000000; stroke-width: 0.8"/>
      </g>
     </g>
     <g id="text_44">
      <text style="font-size: 8px; font-family: 'SimHei', 'Arial', 'DejaVu Sans', sans-serif; text-anchor: end" x="342.60625" y="218.813393" transform="rotate(-0 342.60625 218.813393)">-1</text>
     </g>
    </g>
    <g id="ytick_11">
     <g id="line2d_32">
      <g>
       <use xlink:href="#m1242b54cb2" x="349.60625" y="183.46375" style="stroke: #000000; stroke-width: 0.8"/>
      </g>
     </g>
     <g id="text_45">
      <text style="font-size: 8px; font-family: 'SimHei', 'Arial', 'DejaVu Sans', sans-serif; text-anchor: end" x="342.60625" y="186.21375" transform="rotate(-0 342.60625 186.21375)">0</text>
     </g>
    </g>
    <g id="ytick_12">
     <g id="line2d_33">
      <g>
       <use xlink:href="#m1242b54cb2" x="349.60625" y="150.864107" style="stroke: #000000; stroke-width: 0.8"/>
      </g>
     </g>
     <g id="text_46">
      <text style="font-size: 8px; font-family: 'SimHei', 'Arial', 'DejaVu Sans', sans-serif; text-anchor: end" x="342.60625" y="153.614107" transform="rotate(-0 342.60625 153.614107)">1</text>
     </g>
    </g>
    <g id="ytick_13">
     <g id="line2d_34">
      <g>
       <use xlink:href="#m1242b54cb2" x="349.60625" y="118.264464" style="stroke: #000000; stroke-width: 0.8"/>
      </g>
     </g>
     <g id="text_47">
      <text style="font-size: 8px; font-family: 'SimHei', 'Arial', 'DejaVu Sans', sans-serif; text-anchor: end" x="342.60625" y="121.014464" transform="rotate(-0 342.60625 121.014464)">2</text>
     </g>
    </g>
    <g id="ytick_14">
     <g id="line2d_35">
      <g>
       <use xlink:href="#m1242b54cb2" x="349.60625" y="85.664821" style="stroke: #000000; stroke-width: 0.8"/>
      </g>
     </g>
     <g id="text_48">
      <text style="font-size: 8px; font-family: 'SimHei', 'Arial', 'DejaVu Sans', sans-serif; text-anchor: end" x="342.60625" y="88.414821" transform="rotate(-0 342.60625 88.414821)">3</text>
     </g>
    </g>
    <g id="text_49">
     <text style="font-size: 8px; font-family: 'SimHei', 'Arial', 'DejaVu Sans', sans-serif; text-anchor: middle" x="329.60625" y="183.46375" transform="rotate(-90 329.60625 183.46375)">空间滞后 (Wz)</text>
    </g>
   </g>
   <g id="patch_7">
    <path d="M 349.60625 297.5625 
L 349.60625 69.365 
" style="fill: none; stroke: #000000; stroke-width: 0.7; stroke-linejoin: miter; stroke-linecap: square"/>
   </g>
   <g id="patch_8">
    <path d="M 349.60625 297.5625 
L 622.90125 297.5625 
" style="fill: none; stroke: #000000; stroke-width: 0.7; stroke-linejoin: miter; stroke-linecap: square"/>
   </g>
   <g id="line2d_36">
    <path d="M 349.60625 228.844127 
L 622.90125 127.831926 
" clip-path="url(#p49b1c24105)" style="fill: none; stroke: #b64342; stroke-width: 1.5; stroke-linecap: square"/>
   </g>
   <g id="text_50">
    <text style="font-size: 6px; font-family: 'SimHei', 'Arial', 'DejaVu Sans', sans-serif; text-anchor: start; fill: #272727" x="594.516126" y="170.89304" transform="rotate(-0 594.516126 170.89304)">北京</text>
   </g>
   <g id="text_51">
    <text style="font-size: 6px; font-family: 'SimHei', 'Arial', 'DejaVu Sans', sans-serif; text-anchor: start; fill: #272727" x="555.613198" y="136.948601" transform="rotate(-0 555.613198 136.948601)">上海</text>
   </g>
   <g id="text_52">
    <text style="font-size: 6px; font-family: 'SimHei', 'Arial', 'DejaVu Sans', sans-serif; text-anchor: start; fill: #272727" x="518.42485" y="146.530919" transform="rotate(-0 518.42485 146.530919)">江苏</text>
   </g>
   <g id="text_53">
    <text style="font-size: 6px; font-family: 'SimHei', 'Arial', 'DejaVu Sans', sans-serif; text-anchor: start; fill: #272727" x="519.025874" y="154.923771" transform="rotate(-0 519.025874 154.923771)">浙江</text>
   </g>
   <g id="text_54">
    <text style="font-size: 6px; font-family: 'SimHei', 'Arial', 'DejaVu Sans', sans-serif; text-anchor: start; fill: #272727" x="507.341736" y="189.303054" transform="rotate(-0 507.341736 189.303054)">广东</text>
   </g>
   <g id="text_55">
    <text style="font-size: 6px; font-family: 'SimHei', 'Arial', 'DejaVu Sans', sans-serif; text-anchor: start; fill: #272727" x="449.148448" y="193.316089" transform="rotate(-0 449.148448 193.316089)">贵州</text>
   </g>
   <g id="text_56">
    <text style="font-size: 6px; font-family: 'SimHei', 'Arial', 'DejaVu Sans', sans-serif; text-anchor: start; fill: #272727" x="446.532383" y="201.493573" transform="rotate(-0 446.532383 201.493573)">西藏</text>
   </g>
   <g id="text_57">
    <text style="font-size: 6px; font-family: 'SimHei', 'Arial', 'DejaVu Sans', sans-serif; text-anchor: start; fill: #272727" x="449.380316" y="196.085742" transform="rotate(-0 449.380316 196.085742)">甘肃</text>
   </g>
   <g id="text_58">
    <text style="font-size: 6px; font-family: 'SimHei', 'Arial', 'DejaVu Sans', sans-serif; text-anchor: start; fill: #272727" x="447.019871" y="201.448754" transform="rotate(-0 447.019871 201.448754)">青海</text>
   </g>
   <g id="text_59">
    <text style="font-weight: 700; font-size: 7px; font-family: 'SimHei', 'Arial', 'DejaVu Sans', sans-serif; text-anchor: middle; fill: #767676" x="571.658437" y="85.664821" transform="rotate(-0 571.658437 85.664821)">HH</text>
   </g>
   <g id="text_60">
    <text style="font-weight: 700; font-size: 7px; font-family: 'SimHei', 'Arial', 'DejaVu Sans', sans-serif; text-anchor: middle; fill: #767676" x="383.768125" y="85.664821" transform="rotate(-0 383.768125 85.664821)">LH</text>
   </g>
   <g id="text_61">
    <text style="font-weight: 700; font-size: 7px; font-family: 'SimHei', 'Arial', 'DejaVu Sans', sans-serif; text-anchor: middle; fill: #767676" x="383.768125" y="274.74275" transform="rotate(-0 383.768125 274.74275)">LL</text>
   </g>
   <g id="text_62">
    <text style="font-weight: 700; font-size: 7px; font-family: 'SimHei', 'Arial', 'DejaVu Sans', sans-serif; text-anchor: middle; fill: #767676" x="571.658437" y="274.74275" transform="rotate(-0 571.658437 274.74275)">HL</text>
   </g>
   <g id="text_63">
    <g id="patch_9">
     <path d="M 357.8051 90.779675 
L 417.3051 90.779675 
Q 419.4051 90.779675 419.4051 88.679675 
L 419.4051 76.210925 
Q 419.4051 74.110925 417.3051 74.110925 
L 357.8051 74.110925 
Q 355.7051 74.110925 355.7051 76.210925 
L 355.7051 88.679675 
Q 355.7051 90.779675 357.8051 90.779675 
z
" style="fill: #ffffff; opacity: 0.85; stroke: #dddddd; stroke-linejoin: miter"/>
    </g>
    <text style="font-size: 7px; font-family: 'SimHei', 'Arial', 'DejaVu Sans', sans-serif" transform="translate(357.8051 81.023425)">Moran's I = 0.387</text>
    <text style="font-size: 7px; font-family: 'SimHei', 'Arial', 'DejaVu Sans', sans-serif" transform="translate(357.8051 87.804675)">p = 0.0002</text>
   </g>
   <g id="text_64">
    <text style="font-weight: 700; font-size: 9px; font-family: 'SimHei', 'Arial', 'DejaVu Sans', sans-serif; text-anchor: middle; fill: #272727" x="486.25375" y="63.365" transform="rotate(-0 486.25375 63.365)">2023 年</text>
   </g>
   <g id="PathCollection_2">
    <path d="M 589.516126 178.60114 
C 590.499525 178.60114 591.442779 178.210431 592.138148 177.515062 
C 592.833516 176.819694 593.224225 175.87644 593.224225 174.89304 
C 593.224225 173.909641 592.833516 172.966387 592.138148 172.271018 
C 591.442779 171.57565 590.499525 171.184941 589.516126 171.184941 
C 588.532726 171.184941 587.589472 171.57565 586.894103 172.271018 
C 586.198735 172.966387 585.808026 173.909641 585.808026 174.89304 
C 585.808026 175.87644 586.198735 176.819694 586.894103 177.515062 
C 587.589472 178.210431 588.532726 178.60114 589.516126 178.60114 
z
" clip-path="url(#p49b1c24105)" style="fill: #b64342; stroke: #ffffff; stroke-width: 0.5"/>
    <path d="M 503.615511 136.864903 
C 504.399993 136.864903 505.152449 136.553225 505.707161 135.998513 
C 506.261874 135.443801 506.573551 134.691344 506.573551 133.906863 
C 506.573551 133.122381 506.261874 132.369925 505.707161 131.815213 
C 505.152449 131.260501 504.399993 130.948823 503.615511 130.948823 
C 502.83103 130.948823 502.078573 131.260501 501.523861 131.815213 
C 500.969149 132.369925 500.657471 133.122381 500.657471 133.906863 
C 500.657471 134.691344 500.969149 135.443801 501.523861 135.998513 
C 502.078573 136.553225 502.83103 136.864903 503.615511 136.864903 
z
" clip-path="url(#p49b1c24105)" style="fill: #b64342; stroke: #ffffff; stroke-width: 0.5"/>
    <path d="M 452.69298 172.616797 
C 453.477461 172.616797 454.229918 172.305119 454.78463 171.750407 
C 455.339342 171.195695 455.65102 170.443239 455.65102 169.658757 
C 455.65102 168.874276 455.339342 168.121819 454.78463 167.567107 
C 454.229918 167.012395 453.477461 166.700717 452.69298 166.700717 
C 451.908499 166.700717 451.156042 167.012395 450.60133 167.567107 
C 450.046618 168.121819 449.73494 168.874276 449.73494 169.658757 
C 449.73494 170.443239 450.046618 171.195695 450.60133 171.750407 
C 451.156042 172.305119 451.908499 172.616797 452.69298 172.616797 
z
" clip-path="url(#p49b1c24105)" style="fill: #0f4d92; stroke: #ffffff; stroke-width: 0.5"/>
    <path d="M 448.965866 199.240925 
C 449.750347 199.240925 450.502804 198.929247 451.057516 198.374535 
C 451.612228 197.819823 451.923906 197.067366 451.923906 196.282885 
C 451.923906 195.498403 451.612228 194.745947 451.057516 194.191235 
C 450.502804 193.636523 449.750347 193.324845 448.965866 193.324845 
C 448.181385 193.324845 447.428928 193.636523 446.874216 194.191235 
C 446.319504 194.745947 446.007826 195.498403 446.007826 196.282885 
C 446.007826 197.067366 446.319504 197.819823 446.874216 198.374535 
C 447.428928 198.929247 448.181385 199.240925 448.965866 199.240925 
z
" clip-path="url(#p49b1c24105)" style="fill: #767676; stroke: #ffffff; stroke-width: 0.5"/>
    <path d="M 450.619901 203.420592 
C 451.404382 203.420592 452.156839 203.108914 452.711551 202.554202 
C 453.266263 201.99949 453.577941 201.247033 453.577941 200.462552 
C 453.577941 199.678071 453.266263 198.925614 452.711551 198.370902 
C 452.156839 197.81619 451.404382 197.504512 450.619901 197.504512 
C 449.835419 197.504512 449.082963 197.81619 448.528251 198.370902 
C 447.973539 198.925614 447.661861 199.678071 447.661861 200.462552 
C 447.661861 201.247033 447.973539 201.99949 448.528251 202.554202 
C 449.082963 203.108914 449.835419 203.420592 450.619901 203.420592 
z
" clip-path="url(#p49b1c24105)" style="fill: #767676; stroke: #ffffff; stroke-width: 0.5"/>
    <path d="M 459.337585 205.524282 
C 460.122066 205.524282 460.874523 205.212604 461.429235 204.657892 
C 461.983947 204.10318 462.295625 203.350723 462.295625 202.566242 
C 462.295625 201.78176 461.983947 201.029304 461.429235 200.474592 
C 460.874523 199.919879 460.122066 199.608202 459.337585 199.608202 
C 458.553104 199.608202 457.800647 199.919879 457.245935 200.474592 
C 456.691223 201.029304 456.379545 201.78176 456.379545 202.566242 
C 456.379545 203.350723 456.691223 204.10318 457.245935 204.657892 
C 457.800647 205.212604 458.553104 205.524282 459.337585 205.524282 
z
" clip-path="url(#p49b1c24105)" style="fill: #767676; stroke: #ffffff; stroke-width: 0.5"/>
    <path d="M 444.151807 204.068097 
C 444.936288 204.068097 445.688745 203.756419 446.243457 203.201707 
C 446.798169 202.646995 447.109847 201.894538 447.109847 201.110057 
C 447.109847 200.325576 446.798169 199.573119 446.243457 199.018407 
C 445.688745 198.463695 444.936288 198.152017 444.151807 198.152017 
C 443.367326 198.152017 442.614869 198.463695 442.060157 199.018407 
C 441.505445 199.573119 441.193767 200.325576 441.193767 201.110057 
C 441.193767 201.894538 441.505445 202.646995 442.060157 203.201707 
C 442.614869 203.756419 443.367326 204.068097 444.151807 204.068097 
z
" clip-path="url(#p49b1c24105)" style="fill: #767676; stroke: #ffffff; stroke-width: 0.5"/>
    <path d="M 442.085105 207.212425 
C 442.869586 207.212425 443.622043 206.900747 444.176755 206.346035 
C 444.731467 205.791323 445.043144 205.038866 445.043144 204.254385 
C 445.043144 203.469903 444.731467 202.717447 444.176755 202.162735 
C 443.622043 201.608023 442.869586 201.296345 442.085105 201.296345 
C 441.300623 201.296345 440.548167 201.608023 439.993454 202.162735 
C 439.438742 202.717447 439.127065 203.469903 439.127065 204.254385 
C 439.127065 205.038866 439.438742 205.791323 439.993454 206.346035 
C 440.548167 206.900747 441.300623 207.212425 442.085105 207.212425 
z
" clip-path="url(#p49b1c24105)" style="fill: #767676; stroke: #ffffff; stroke-width: 0.5"/>
    <path d="M 550.613198 144.6567 
C 551.596597 144.6567 552.539851 144.265992 553.23522 143.570623 
C 553.930588 142.875255 554.321297 141.932001 554.321297 140.948601 
C 554.321297 139.965202 553.930588 139.021947 553.23522 138.326579 
C 552.539851 137.631211 551.596597 137.240502 550.613198 137.240502 
C 549.629798 137.240502 548.686544 137.631211 547.991176 138.326579 
C 547.295807 139.021947 546.905098 139.965202 546.905098 140.948601 
C 546.905098 141.932001 547.295807 142.875255 547.991176 143.570623 
C 548.686544 144.265992 549.629798 144.6567 550.613198 144.6567 
z
" clip-path="url(#p49b1c24105)" style="fill: #b64342; stroke: #ffffff; stroke-width: 0.5"/>
    <path d="M 513.42485 154.239018 
C 514.40825 154.239018 515.351504 153.848309 516.046872 153.152941 
C 516.742241 152.457572 517.132949 151.514318 517.132949 150.530919 
C 517.132949 149.547519 516.742241 148.604265 516.046872 147.908897 
C 515.351504 147.213528 514.40825 146.822819 513.42485 146.822819 
C 512.441451 146.822819 511.498197 147.213528 510.802828 147.908897 
C 510.10746 148.604265 509.716751 149.547519 509.716751 150.530919 
C 509.716751 151.514318 510.10746 152.457572 510.802828 153.152941 
C 511.498197 153.848309 512.441451 154.239018 513.42485 154.239018 
z
" clip-path="url(#p49b1c24105)" style="fill: #b64342; stroke: #ffffff; stroke-width: 0.5"/>
    <path d="M 514.025874 162.63187 
C 515.009273 162.63187 515.952527 162.241162 516.647896 161.545793 
C 517.343264 160.850425 517.733973 159.90717 517.733973 158.923771 
C 517.733973 157.940372 517.343264 156.997117 516.647896 156.301749 
C 515.952527 155.60638 515.009273 155.215672 514.025874 155.215672 
C 513.042474 155.215672 512.09922 155.60638 511.403852 156.301749 
C 510.708483 156.997117 510.317774 157.940372 510.317774 158.923771 
C 510.317774 159.90717 510.708483 160.850425 511.403852 161.545793 
C 512.09922 162.241162 513.042474 162.63187 514.025874 162.63187 
z
" clip-path="url(#p49b1c24105)" style="fill: #b64342; stroke: #ffffff; stroke-width: 0.5"/>
    <path d="M 470.293877 173.973295 
C 471.078359 173.973295 471.830815 173.661617 472.385527 173.106905 
C 472.940239 172.552193 473.251917 171.799737 473.251917 171.015255 
C 473.251917 170.230774 472.940239 169.478317 472.385527 168.923605 
C 471.830815 168.368893 471.078359 168.057215 470.293877 168.057215 
C 469.509396 168.057215 468.756939 168.368893 468.202227 168.923605 
C 467.647515 169.478317 467.335837 170.230774 467.335837 171.015255 
C 467.335837 171.799737 467.647515 172.552193 468.202227 173.106905 
C 468.756939 173.661617 469.509396 173.973295 470.293877 173.973295 
z
" clip-path="url(#p49b1c24105)" style="fill: #0f4d92; stroke: #ffffff; stroke-width: 0.5"/>
    <path d="M 480.912092 164.776056 
C 481.696573 164.776056 482.44903 164.464378 483.003742 163.909666 
C 483.558454 163.354954 483.870132 162.602497 483.870132 161.818016 
C 483.870132 161.033534 483.558454 160.281078 483.003742 159.726366 
C 482.44903 159.171654 481.696573 158.859976 480.912092 158.859976 
C 480.127611 158.859976 479.375154 159.171654 478.820442 159.726366 
C 478.26573 160.281078 477.954052 161.033534 477.954052 161.818016 
C 477.954052 162.602497 478.26573 163.354954 478.820442 163.909666 
C 479.375154 164.464378 480.127611 164.776056 480.912092 164.776056 
z
" clip-path="url(#p49b1c24105)" style="fill: #b64342; stroke: #ffffff; stroke-width: 0.5"/>
    <path d="M 459.199935 172.105652 
C 459.984416 172.105652 460.736873 171.793974 461.291585 171.239262 
C 461.846297 170.68455 462.157975 169.932093 462.157975 169.147612 
C 462.157975 168.363131 461.846297 167.610674 461.291585 167.055962 
C 460.736873 166.50125 459.984416 166.189572 459.199935 166.189572 
C 458.415453 166.189572 457.662997 166.50125 457.108285 167.055962 
C 456.553573 167.610674 456.241895 168.363131 456.241895 169.147612 
C 456.241895 169.932093 456.553573 170.68455 457.108285 171.239262 
C 457.662997 171.793974 458.415453 172.105652 459.199935 172.105652 
z
" clip-path="url(#p49b1c24105)" style="fill: #0f4d92; stroke: #ffffff; stroke-width: 0.5"/>
    <path d="M 479.802423 183.239635 
C 480.586904 183.239635 481.339361 182.927957 481.894073 182.373245 
C 482.448785 181.818533 482.760463 181.066076 482.760463 180.281595 
C 482.760463 179.497113 482.448785 178.744657 481.894073 178.189945 
C 481.339361 177.635233 480.586904 177.323555 479.802423 177.323555 
C 479.017942 177.323555 478.265485 177.635233 477.710773 178.189945 
C 477.156061 178.744657 476.844383 179.497113 476.844383 180.281595 
C 476.844383 181.066076 477.156061 181.818533 477.710773 182.373245 
C 478.265485 182.927957 479.017942 183.239635 479.802423 183.239635 
z
" clip-path="url(#p49b1c24105)" style="fill: #b64342; stroke: #ffffff; stroke-width: 0.5"/>
    <path d="M 453.618141 190.241948 
C 454.402623 190.241948 455.155079 189.93027 455.709791 189.375558 
C 456.264504 188.820846 456.576181 188.068389 456.576181 187.283908 
C 456.576181 186.499427 456.264504 185.74697 455.709791 185.192258 
C 455.155079 184.637546 454.402623 184.325868 453.618141 184.325868 
C 452.83366 184.325868 452.081203 184.637546 451.526491 185.192258 
C 450.971779 185.74697 450.660101 186.499427 450.660101 187.283908 
C 450.660101 188.068389 450.971779 188.820846 451.526491 189.375558 
C 452.081203 189.93027 452.83366 190.241948 453.618141 190.241948 
z
" clip-path="url(#p49b1c24105)" style="fill: #0f4d92; stroke: #ffffff; stroke-width: 0.5"/>
    <path d="M 473.235942 191.769435 
C 474.020424 191.769435 474.77288 191.457757 475.327592 190.903045 
C 475.882305 190.348333 476.193982 189.595877 476.193982 188.811395 
C 476.193982 188.026914 475.882305 187.274457 475.327592 186.719745 
C 474.77288 186.165033 474.020424 185.853355 473.235942 185.853355 
C 472.451461 185.853355 471.699004 186.165033 471.144292 186.719745 
C 470.58958 187.274457 470.277903 188.026914 470.277903 188.811395 
C 470.277903 189.595877 470.58958 190.348333 471.144292 190.903045 
C 471.699004 191.457757 472.451461 191.769435 473.235942 191.769435 
z
" clip-path="url(#p49b1c24105)" style="fill: #767676; stroke: #ffffff; stroke-width: 0.5"/>
    <path d="M 464.240509 190.506139 
C 465.02499 190.506139 465.777447 190.194462 466.332159 189.63975 
C 466.886871 189.085038 467.198549 188.332581 467.198549 187.5481 
C 467.198549 186.763618 466.886871 186.011162 466.332159 185.45645 
C 465.777447 184.901737 465.02499 184.59006 464.240509 184.59006 
C 463.456028 184.59006 462.703571 184.901737 462.148859 185.45645 
C 461.594147 186.011162 461.282469 186.763618 461.282469 187.5481 
C 461.282469 188.332581 461.594147 189.085038 462.148859 189.63975 
C 462.703571 190.194462 463.456028 190.506139 464.240509 190.506139 
z
" clip-path="url(#p49b1c24105)" style="fill: #767676; stroke: #ffffff; stroke-width: 0.5"/>
    <path d="M 502.341736 197.011153 
C 503.325136 197.011153 504.26839 196.620444 504.963758 195.925076 
C 505.659127 195.229707 506.049835 194.286453 506.049835 193.303054 
C 506.049835 192.319654 505.659127 191.3764 504.963758 190.681032 
C 504.26839 189.985663 503.325136 189.594954 502.341736 189.594954 
C 501.358337 189.594954 500.415083 189.985663 499.719714 190.681032 
C 499.024346 191.3764 498.633637 192.319654 498.633637 193.303054 
C 498.633637 194.286453 499.024346 195.229707 499.719714 195.925076 
C 500.415083 196.620444 501.358337 197.011153 502.341736 197.011153 
z
" clip-path="url(#p49b1c24105)" style="fill: #b64342; stroke: #ffffff; stroke-width: 0.5"/>
    <path d="M 442.395838 191.731249 
C 443.180319 191.731249 443.932776 191.419572 444.487488 190.86486 
C 445.0422 190.310148 445.353878 189.557691 445.353878 188.77321 
C 445.353878 187.988728 445.0422 187.236272 444.487488 186.681559 
C 443.932776 186.126847 443.180319 185.81517 442.395838 185.81517 
C 441.611357 185.81517 440.8589 186.126847 440.304188 186.681559 
C 439.749476 187.236272 439.437798 187.988728 439.437798 188.77321 
C 439.437798 189.557691 439.749476 190.310148 440.304188 190.86486 
C 440.8589 191.419572 441.611357 191.731249 442.395838 191.731249 
z
" clip-path="url(#p49b1c24105)" style="fill: #0f4d92; stroke: #ffffff; stroke-width: 0.5"/>
    <path d="M 447.561587 154.76969 
C 448.346068 154.76969 449.098525 154.458013 449.653237 153.903301 
C 450.207949 153.348588 450.519627 152.596132 450.519627 151.81165 
C 450.519627 151.027169 450.207949 150.274712 449.653237 149.72 
C 449.098525 149.165288 448.346068 148.853611 447.561587 148.853611 
C 446.777105 148.853611 446.024649 149.165288 445.469937 149.72 
C 444.915225 150.274712 444.603547 151.027169 444.603547 151.81165 
C 444.603547 152.596132 444.915225 153.348588 445.469937 153.903301 
C 446.024649 154.458013 446.777105 154.76969 447.561587 154.76969 
z
" clip-path="url(#p49b1c24105)" style="fill: #0f4d92; stroke: #ffffff; stroke-width: 0.5"/>
    <path d="M 468.034503 194.686782 
C 468.818984 194.686782 469.571441 194.375104 470.126153 193.820392 
C 470.680865 193.26568 470.992543 192.513223 470.992543 191.728742 
C 470.992543 190.944261 470.680865 190.191804 470.126153 189.637092 
C 469.571441 189.08238 468.818984 188.770702 468.034503 188.770702 
C 467.250021 188.770702 466.497565 189.08238 465.942853 189.637092 
C 465.388141 190.191804 465.076463 190.944261 465.076463 191.728742 
C 465.076463 192.513223 465.388141 193.26568 465.942853 193.820392 
C 466.497565 194.375104 467.250021 194.686782 468.034503 194.686782 
z
" clip-path="url(#p49b1c24105)" style="fill: #767676; stroke: #ffffff; stroke-width: 0.5"/>
    <path d="M 454.907411 204.738694 
C 455.691892 204.738694 456.444349 204.427016 456.999061 203.872304 
C 457.553773 203.317592 457.865451 202.565135 457.865451 201.780654 
C 457.865451 200.996173 457.553773 200.243716 456.999061 199.689004 
C 456.444349 199.134292 455.691892 198.822614 454.907411 198.822614 
C 454.122929 198.822614 453.370473 199.134292 452.815761 199.689004 
C 452.261049 200.243716 451.949371 200.996173 451.949371 201.780654 
C 451.949371 202.565135 452.261049 203.317592 452.815761 203.872304 
C 453.370473 204.427016 454.122929 204.738694 454.907411 204.738694 
z
" clip-path="url(#p49b1c24105)" style="fill: #767676; stroke: #ffffff; stroke-width: 0.5"/>
    <path d="M 444.148448 200.274129 
C 444.93293 200.274129 445.685386 199.962451 446.240098 199.407739 
C 446.79481 198.853027 447.106488 198.100571 447.106488 197.316089 
C 447.106488 196.531608 446.79481 195.779151 446.240098 195.224439 
C 445.685386 194.669727 444.93293 194.358049 444.148448 194.358049 
C 443.363967 194.358049 442.61151 194.669727 442.056798 195.224439 
C 441.502086 195.779151 441.190408 196.531608 441.190408 197.316089 
C 441.190408 198.100571 441.502086 198.853027 442.056798 199.407739 
C 442.61151 199.962451 443.363967 200.274129 444.148448 200.274129 
z
" clip-path="url(#p49b1c24105)" style="fill: #767676; stroke: #ffffff; stroke-width: 0.5"/>
    <path d="M 443.704964 208.777269 
C 444.489445 208.777269 445.241902 208.465591 445.796614 207.910879 
C 446.351326 207.356167 446.663004 206.60371 446.663004 205.819229 
C 446.663004 205.034747 446.351326 204.282291 445.796614 203.727579 
C 445.241902 203.172867 444.489445 202.861189 443.704964 202.861189 
C 442.920482 202.861189 442.168026 203.172867 441.613314 203.727579 
C 441.058602 204.282291 440.746924 205.034747 440.746924 205.819229 
C 440.746924 206.60371 441.058602 207.356167 441.613314 207.910879 
C 442.168026 208.465591 442.920482 208.777269 443.704964 208.777269 
z
" clip-path="url(#p49b1c24105)" style="fill: #767676; stroke: #ffffff; stroke-width: 0.5"/>
    <path d="M 441.532383 208.451612 
C 442.316864 208.451612 443.069321 208.139935 443.624033 207.585223 
C 444.178745 207.030511 444.490423 206.278054 444.490423 205.493573 
C 444.490423 204.709091 444.178745 203.956635 443.624033 203.401923 
C 443.069321 202.84721 442.316864 202.535533 441.532383 202.535533 
C 440.747901 202.535533 439.995445 202.84721 439.440733 203.401923 
C 438.886021 203.956635 438.574343 204.709091 438.574343 205.493573 
C 438.574343 206.278054 438.886021 207.030511 439.440733 207.585223 
C 439.995445 208.139935 440.747901 208.451612 441.532383 208.451612 
z
" clip-path="url(#p49b1c24105)" style="fill: #767676; stroke: #ffffff; stroke-width: 0.5"/>
    <path d="M 466.026427 199.111826 
C 466.810908 199.111826 467.563365 198.800148 468.118077 198.245436 
C 468.672789 197.690724 468.984467 196.938268 468.984467 196.153786 
C 468.984467 195.369305 468.672789 194.616848 468.118077 194.062136 
C 467.563365 193.507424 466.810908 193.195746 466.026427 193.195746 
C 465.241946 193.195746 464.489489 193.507424 463.934777 194.062136 
C 463.380065 194.616848 463.068387 195.369305 463.068387 196.153786 
C 463.068387 196.938268 463.380065 197.690724 463.934777 198.245436 
C 464.489489 198.800148 465.241946 199.111826 466.026427 199.111826 
z
" clip-path="url(#p49b1c24105)" style="fill: #767676; stroke: #ffffff; stroke-width: 0.5"/>
    <path d="M 444.380316 203.043782 
C 445.164797 203.043782 445.917254 202.732104 446.471966 202.177392 
C 447.026678 201.62268 447.338356 200.870223 447.338356 200.085742 
C 447.338356 199.301261 447.026678 198.548804 446.471966 197.994092 
C 445.917254 197.43938 445.164797 197.127702 444.380316 197.127702 
C 443.595834 197.127702 442.843378 197.43938 442.288666 197.994092 
C 441.733953 198.548804 441.422276 199.301261 441.422276 200.085742 
C 441.422276 200.870223 441.733953 201.62268 442.288666 202.177392 
C 442.843378 202.732104 443.595834 203.043782 444.380316 203.043782 
z
" clip-path="url(#p49b1c24105)" style="fill: #767676; stroke: #ffffff; stroke-width: 0.5"/>
    <path d="M 442.019871 208.406794 
C 442.804353 208.406794 443.556809 208.095117 444.111521 207.540405 
C 444.666233 206.985692 444.977911 206.233236 444.977911 205.448754 
C 444.977911 204.664273 444.666233 203.911817 444.111521 203.357104 
C 443.556809 202.802392 442.804353 202.490715 442.019871 202.490715 
C 441.23539 202.490715 440.482933 202.802392 439.928221 203.357104 
C 439.373509 203.911817 439.061831 204.664273 439.061831 205.448754 
C 439.061831 206.233236 439.373509 206.985692 439.928221 207.540405 
C 440.482933 208.095117 441.23539 208.406794 442.019871 208.406794 
z
" clip-path="url(#p49b1c24105)" style="fill: #767676; stroke: #ffffff; stroke-width: 0.5"/>
    <path d="M 453.2351 201.21036 
C 454.019582 201.21036 454.772038 200.898683 455.32675 200.34397 
C 455.881462 199.789258 456.19314 199.036802 456.19314 198.25232 
C 456.19314 197.467839 455.881462 196.715382 455.32675 196.16067 
C 454.772038 195.605958 454.019582 195.29428 453.2351 195.29428 
C 452.450619 195.29428 451.698162 195.605958 451.14345 196.16067 
C 450.588738 196.715382 450.27706 197.467839 450.27706 198.25232 
C 450.27706 199.036802 450.588738 199.789258 451.14345 200.34397 
C 451.698162 200.898683 452.450619 201.21036 453.2351 201.21036 
z
" clip-path="url(#p49b1c24105)" style="fill: #767676; stroke: #ffffff; stroke-width: 0.5"/>
    <path d="M 443.716883 211.737251 
C 444.501364 211.737251 445.253821 211.425573 445.808533 210.870861 
C 446.363245 210.316149 446.674923 209.563693 446.674923 208.779211 
C 446.674923 207.99473 446.363245 207.242273 445.808533 206.687561 
C 445.253821 206.132849 444.501364 205.821171 443.716883 205.821171 
C 442.932401 205.821171 442.179945 206.132849 441.625233 206.687561 
C 441.070521 207.242273 440.758843 207.99473 440.758843 208.779211 
C 440.758843 209.563693 441.070521 210.316149 441.625233 210.870861 
C 442.179945 211.425573 442.932401 211.737251 443.716883 211.737251 
z
" clip-path="url(#p49b1c24105)" style="fill: #767676; stroke: #ffffff; stroke-width: 0.5"/>
   </g>
  </g>
  <g id="text_65">
   <text style="font-weight: 700; font-size: 11px; font-family: 'SimHei', 'Arial', 'DejaVu Sans', sans-serif; text-anchor: middle; fill: #272727" x="314.90125" y="16.1375" transform="rotate(-0 314.90125 16.1375)">新质生产力空间自相关：显著的HH-LL集聚与路径依赖</text>
  </g>
 </g>
 <defs>
  <clipPath id="p7c11729f35">
   <rect x="33.60625" y="69.365" width="273.295" height="228.1975"/>
  </clipPath>
  <clipPath id="p49b1c24105">
   <rect x="349.60625" y="69.365" width="273.295" height="228.1975"/>
  </clipPath>
 </defs>
</svg>
