<?xml version="1.0" encoding="utf-8" standalone="no"?>
<!DOCTYPE svg PUBLIC "-//W3C//DTD SVG 1.1//EN"
  "http://www.w3.org/Graphics/SVG/1.1/DTD/svg11.dtd">
<svg xmlns:xlink="http://www.w3.org/1999/xlink" width="597.46875pt" height="343.159pt" viewBox="0 0 597.46875 343.159" xmlns="http://www.w3.org/2000/svg" version="1.1">
 <metadata>
  <rdf:RDF xmlns:dc="http://purl.org/dc/elements/1.1/" xmlns:cc="http://creativecommons.org/ns#" xmlns:rdf="http://www.w3.org/1999/02/22-rdf-syntax-ns#">
   <cc:Work>
    <dc:type rdf:resource="http://purl.org/dc/dcmitype/StillImage"/>
    <dc:date>2026-05-17T18:48:48.434269</dc:date>
    <dc:format>image/svg+xml</dc:format>
    <dc:creator>
     <cc:Agent>
      <dc:title>Matplotlib v3.10.9, https://matplotlib.org/</dc:title>
     </cc:Agent>
    </dc:creator>
   </cc:Work>
  </rdf:RDF>
 </metadata>
 <defs>
  <style type="text/css">*{stroke-linejoin: round; stroke-linecap: butt}</style>
 </defs>
 <g id="figure_1">
  <g id="patch_1">
   <path d="M 0 343.159 
L 597.46875 343.159 
L 597.46875 0 
L 0 0 
z
" style="fill: #ffffff"/>
  </g>
  <g id="axes_1">
   <g id="patch_2">
    <path d="M 35.6375 282.69225 
L 590.26875 282.69225 
L 590.26875 28.1375 
L 35.6375 28.1375 
z
" style="fill: #ffffff"/>
   </g>
   <g id="FillBetweenPolyCollection_1">
    <path d="M 60.848011 39.70817 
L 60.848011 103.508145 
L 62.534333 104.011777 
L 64.220655 104.515497 
L 65.906977 105.019306 
L 67.593299 105.523204 
L 69.279621 106.027192 
L 70.965942 106.531271 
L 72.652264 107.035442 
L 74.338586 107.539707 
L 76.024908 108.044066 
L 77.71123 108.54852 
L 79.397551 109.05307 
L 81.083873 109.557718 
L 82.770195 110.062463 
L 84.456517 110.567308 
L 86.142839 111.072254 
L 87.829161 111.577301 
L 89.515482 112.082451 
L 91.201804 112.587704 
L 92.888126 113.093063 
L 94.574448 113.598528 
L 96.26077 114.104099 
L 97.947092 114.60978 
L 99.633413 115.11557 
L 101.319735 115.62147 
L 103.006057 116.127483 
L 104.692379 116.63361 
L 106.378701 117.13985 
L 108.065023 117.646207 
L 109.751344 118.152681 
L 111.437666 118.659274 
L 113.123988 119.165987 
L 114.81031 119.672821 
L 116.496632 120.179777 
L 118.182954 120.686858 
L 119.869275 121.194064 
L 121.555597 121.701397 
L 123.241919 122.208858 
L 124.928241 122.71645 
L 126.614563 123.224173 
L 128.300885 123.732028 
L 129.987206 124.240019 
L 131.673528 124.748145 
L 133.35985 125.256409 
L 135.046172 125.764812 
L 136.732494 126.273356 
L 138.418816 126.782043 
L 140.105137 127.290874 
L 141.791459 127.799851 
L 143.477781 128.308975 
L 145.164103 128.81825 
L 146.850425 129.327675 
L 148.536747 129.837254 
L 150.223068 130.346987 
L 151.90939 130.856877 
L 153.595712 131.366926 
L 155.282034 131.877136 
L 156.968356 132.387508 
L 158.654678 132.898045 
L 160.340999 133.408748 
L 162.027321 133.91962 
L 163.713643 134.430663 
L 165.399965 134.941878 
L 167.086287 135.453269 
L 168.772609 135.964836 
L 170.45893 136.476583 
L 172.145252 136.988511 
L 173.831574 137.500623 
L 175.517896 138.012921 
L 177.204218 138.525407 
L 178.890539 139.038084 
L 180.576861 139.550955 
L 182.263183 140.06402 
L 183.949505 140.577284 
L 185.635827 141.090749 
L 187.322149 141.604416 
L 189.00847 142.11829 
L 190.694792 142.632371 
L 192.381114 143.146664 
L 194.067436 143.66117 
L 195.753758 144.175892 
L 197.44008 144.690834 
L 199.126401 145.205998 
L 200.812723 145.721386 
L 202.499045 146.237003 
L 204.185367 146.75285 
L 205.871689 147.268931 
L 207.558011 147.785248 
L 209.244332 148.301806 
L 210.930654 148.818606 
L 212.616976 149.335653 
L 214.303298 149.852949 
L 215.98962 150.370497 
L 217.675942 150.888302 
L 219.362263 151.406366 
L 221.048585 151.924693 
L 222.734907 152.443286 
L 224.421229 152.962148 
L 226.107551 153.481285 
L 227.793873 154.000698 
L 229.480194 154.520391 
L 231.166516 155.04037 
L 232.852838 155.560636 
L 234.53916 156.081194 
L 236.225482 156.602049 
L 237.911804 157.123203 
L 239.598125 157.644661 
L 241.284447 158.166428 
L 242.970769 158.688506 
L 244.657091 159.210901 
L 246.343413 159.733616 
L 248.029735 160.256657 
L 249.716056 160.780026 
L 251.402378 161.30373 
L 253.0887 161.827772 
L 254.775022 162.352156 
L 256.461344 162.876888 
L 258.147666 163.401973 
L 259.833987 163.927414 
L 261.520309 164.453217 
L 263.206631 164.979387 
L 264.892953 165.505929 
L 266.579275 166.032847 
L 268.265596 166.560148 
L 269.951918 167.087835 
L 271.63824 167.615915 
L 273.324562 168.144392 
L 275.010884 168.673273 
L 276.697206 169.202562 
L 278.383527 169.732265 
L 280.069849 170.262387 
L 281.756171 170.792935 
L 283.442493 171.323915 
L 285.128815 171.855331 
L 286.815137 172.38719 
L 288.501458 172.919498 
L 290.18778 173.452261 
L 291.874102 173.985485 
L 293.560424 174.519176 
L 295.246746 175.053341 
L 296.933068 175.587986 
L 298.619389 176.123117 
L 300.305711 176.658741 
L 301.992033 177.194865 
L 303.678355 177.731494 
L 305.364677 178.268637 
L 307.050999 178.806299 
L 308.73732 179.344489 
L 310.423642 179.883211 
L 312.109964 180.422474 
L 313.796286 180.962285 
L 315.482608 181.502651 
L 317.16893 182.043579 
L 318.855251 182.585077 
L 320.541573 183.127151 
L 322.227895 183.66981 
L 323.914217 184.213061 
L 325.600539 184.756911 
L 327.286861 185.301368 
L 328.973182 185.84644 
L 330.659504 186.392135 
L 332.345826 186.93846 
L 334.032148 187.485424 
L 335.71847 188.033034 
L 337.404792 188.581298 
L 339.091113 189.130225 
L 340.777435 189.679823 
L 342.463757 190.230099 
L 344.150079 190.781062 
L 345.836401 191.332721 
L 347.522723 191.885083 
L 349.209044 192.438157 
L 350.895366 192.991951 
L 352.581688 193.546473 
L 354.26801 194.101733 
L 355.954332 194.657739 
L 357.640654 195.214498 
L 359.326975 195.77202 
L 361.013297 196.330313 
L 362.699619 196.889385 
L 364.385941 197.449246 
L 366.072263 198.009903 
L 367.758584 198.571365 
L 369.444906 199.133641 
L 371.131228 199.696739 
L 372.81755 200.260668 
L 374.503872 200.825435 
L 376.190194 201.39105 
L 377.876515 201.957521 
L 379.562837 202.524856 
L 381.249159 203.093064 
L 382.935481 203.662153 
L 384.621803 204.23213 
L 386.308125 204.803005 
L 387.994446 205.374785 
L 389.680768 205.947479 
L 391.36709 206.521093 
L 393.053412 207.095637 
L 394.739734 207.671118 
L 396.426056 208.247542 
L 398.112377 208.824919 
L 399.798699 209.403256 
L 401.485021 209.982559 
L 403.171343 210.562836 
L 404.857665 211.144094 
L 406.543987 211.726341 
L 408.230308 212.309582 
L 409.91663 212.893824 
L 411.602952 213.479074 
L 413.289274 214.065339 
L 414.975596 214.652624 
L 416.661918 215.240935 
L 418.348239 215.830278 
L 420.034561 216.420659 
L 421.720883 217.012083 
L 423.407205 217.604556 
L 425.093527 218.198082 
L 426.779849 218.792666 
L 428.46617 219.388313 
L 430.152492 219.985027 
L 431.838814 220.582813 
L 433.525136 221.181673 
L 435.211458 221.781613 
L 436.89778 222.382635 
L 438.584101 222.984742 
L 440.270423 223.587938 
L 441.956745 224.192225 
L 443.643067 224.797606 
L 445.329389 225.404083 
L 447.015711 226.011658 
L 448.702032 226.620332 
L 450.388354 227.230107 
L 452.074676 227.840984 
L 453.760998 228.452964 
L 455.44732 229.066047 
L 457.133641 229.680235 
L 458.819963 230.295526 
L 460.506285 230.911921 
L 462.192607 231.52942 
L 463.878929 232.148022 
L 465.565251 232.767725 
L 467.251572 233.388528 
L 468.937894 234.010431 
L 470.624216 234.63343 
L 472.310538 235.257525 
L 473.99686 235.882713 
L 475.683182 236.508991 
L 477.369503 237.136356 
L 479.055825 237.764806 
L 480.742147 238.394338 
L 482.428469 239.024947 
L 484.114791 239.656629 
L 485.801113 240.289382 
L 487.487434 240.9232 
L 489.173756 241.55808 
L 490.860078 242.194016 
L 492.5464 242.831004 
L 494.232722 243.469038 
L 495.919044 244.108114 
L 497.605365 244.748226 
L 499.291687 245.389368 
L 500.978009 246.031534 
L 502.664331 246.674718 
L 504.350653 247.318915 
L 506.036975 247.964117 
L 507.723296 248.610318 
L 509.409618 249.257512 
L 511.09594 249.905691 
L 512.782262 250.554849 
L 514.468584 251.204979 
L 516.154906 251.856072 
L 517.841227 252.508123 
L 519.527549 253.161123 
L 521.213871 253.815065 
L 522.900193 254.469941 
L 524.586515 255.125744 
L 526.272837 255.782465 
L 527.959158 256.440096 
L 529.64548 257.09863 
L 531.331802 257.758059 
L 533.018124 258.418374 
L 534.704446 259.079566 
L 536.390768 259.741629 
L 538.077089 260.404553 
L 539.763411 261.068329 
L 541.449733 261.732951 
L 543.136055 262.398408 
L 544.822377 263.064694 
L 546.508699 263.731798 
L 548.19502 264.399713 
L 549.881342 265.06843 
L 551.567664 265.737941 
L 553.253986 266.408238 
L 554.940308 267.07931 
L 556.626629 267.751151 
L 558.312951 268.423751 
L 559.999273 269.097103 
L 561.685595 269.771197 
L 563.371917 270.446025 
L 565.058239 271.12158 
L 565.058239 239.595646 
L 565.058239 239.595646 
L 563.371917 239.0421 
L 561.685595 238.487828 
L 559.999273 237.932822 
L 558.312951 237.377074 
L 556.626629 236.820574 
L 554.940308 236.263315 
L 553.253986 235.705287 
L 551.567664 235.146483 
L 549.881342 234.586894 
L 548.19502 234.026512 
L 546.508699 233.465327 
L 544.822377 232.903331 
L 543.136055 232.340516 
L 541.449733 231.776874 
L 539.763411 231.212395 
L 538.077089 230.647072 
L 536.390768 230.080896 
L 534.704446 229.513858 
L 533.018124 228.945951 
L 531.331802 228.377166 
L 529.64548 227.807494 
L 527.959158 227.236928 
L 526.272837 226.66546 
L 524.586515 226.093081 
L 522.900193 225.519783 
L 521.213871 224.945559 
L 519.527549 224.370401 
L 517.841227 223.794301 
L 516.154906 223.217252 
L 514.468584 222.639246 
L 512.782262 222.060275 
L 511.09594 221.480333 
L 509.409618 220.899412 
L 507.723296 220.317506 
L 506.036975 219.734607 
L 504.350653 219.150709 
L 502.664331 218.565806 
L 500.978009 217.97989 
L 499.291687 217.392956 
L 497.605365 216.804998 
L 495.919044 216.21601 
L 494.232722 215.625985 
L 492.5464 215.03492 
L 490.860078 214.442808 
L 489.173756 213.849644 
L 487.487434 213.255423 
L 485.801113 212.660142 
L 484.114791 212.063794 
L 482.428469 211.466377 
L 480.742147 210.867886 
L 479.055825 210.268317 
L 477.369503 209.667667 
L 475.683182 209.065932 
L 473.99686 208.46311 
L 472.310538 207.859198 
L 470.624216 207.254193 
L 468.937894 206.648093 
L 467.251572 206.040895 
L 465.565251 205.432599 
L 463.878929 204.823202 
L 462.192607 204.212703 
L 460.506285 203.601102 
L 458.819963 202.988397 
L 457.133641 202.374588 
L 455.44732 201.759676 
L 453.760998 201.143659 
L 452.074676 200.526539 
L 450.388354 199.908316 
L 448.702032 199.288991 
L 447.015711 198.668565 
L 445.329389 198.04704 
L 443.643067 197.424416 
L 441.956745 196.800697 
L 440.270423 196.175884 
L 438.584101 195.54998 
L 436.89778 194.922988 
L 435.211458 194.29491 
L 433.525136 193.665749 
L 431.838814 193.03551 
L 430.152492 192.404195 
L 428.46617 191.771809 
L 426.779849 191.138356 
L 425.093527 190.503841 
L 423.407205 189.868267 
L 421.720883 189.231639 
L 420.034561 188.593963 
L 418.348239 187.955244 
L 416.661918 187.315488 
L 414.975596 186.674699 
L 413.289274 186.032883 
L 411.602952 185.390048 
L 409.91663 184.746198 
L 408.230308 184.10134 
L 406.543987 183.455481 
L 404.857665 182.808628 
L 403.171343 182.160786 
L 401.485021 181.511963 
L 399.798699 180.862166 
L 398.112377 180.211402 
L 396.426056 179.559679 
L 394.739734 178.907004 
L 393.053412 178.253385 
L 391.36709 177.598828 
L 389.680768 176.943343 
L 387.994446 176.286936 
L 386.308125 175.629616 
L 384.621803 174.971391 
L 382.935481 174.312269 
L 381.249159 173.652257 
L 379.562837 172.991365 
L 377.876515 172.3296 
L 376.190194 171.666971 
L 374.503872 171.003486 
L 372.81755 170.339154 
L 371.131228 169.673982 
L 369.444906 169.00798 
L 367.758584 168.341156 
L 366.072263 167.673518 
L 364.385941 167.005075 
L 362.699619 166.335836 
L 361.013297 165.665808 
L 359.326975 164.995001 
L 357.640654 164.323423 
L 355.954332 163.651082 
L 354.26801 162.977988 
L 352.581688 162.304148 
L 350.895366 161.62957 
L 349.209044 160.954264 
L 347.522723 160.278238 
L 345.836401 159.6015 
L 344.150079 158.924059 
L 342.463757 158.245922 
L 340.777435 157.567098 
L 339.091113 156.887595 
L 337.404792 156.207422 
L 335.71847 155.526587 
L 334.032148 154.845097 
L 332.345826 154.16296 
L 330.659504 153.480186 
L 328.973182 152.79678 
L 327.286861 152.112753 
L 325.600539 151.42811 
L 323.914217 150.74286 
L 322.227895 150.05701 
L 320.541573 149.370569 
L 318.855251 148.683544 
L 317.16893 147.995941 
L 315.482608 147.307769 
L 313.796286 146.619035 
L 312.109964 145.929746 
L 310.423642 145.239909 
L 308.73732 144.549532 
L 307.050999 143.858621 
L 305.364677 143.167183 
L 303.678355 142.475226 
L 301.992033 141.782755 
L 300.305711 141.089779 
L 298.619389 140.396303 
L 296.933068 139.702334 
L 295.246746 139.007879 
L 293.560424 138.312944 
L 291.874102 137.617535 
L 290.18778 136.921659 
L 288.501458 136.225322 
L 286.815137 135.52853 
L 285.128815 134.831289 
L 283.442493 134.133605 
L 281.756171 133.435484 
L 280.069849 132.736932 
L 278.383527 132.037955 
L 276.697206 131.338558 
L 275.010884 130.638747 
L 273.324562 129.938527 
L 271.63824 129.237904 
L 269.951918 128.536884 
L 268.265596 127.835472 
L 266.579275 127.133672 
L 264.892953 126.43149 
L 263.206631 125.728932 
L 261.520309 125.026002 
L 259.833987 124.322705 
L 258.147666 123.619046 
L 256.461344 122.915031 
L 254.775022 122.210663 
L 253.0887 121.505947 
L 251.402378 120.800889 
L 249.716056 120.095493 
L 248.029735 119.389762 
L 246.343413 118.683703 
L 244.657091 117.977318 
L 242.970769 117.270613 
L 241.284447 116.563591 
L 239.598125 115.856257 
L 237.911804 115.148616 
L 236.225482 114.44067 
L 234.53916 113.732424 
L 232.852838 113.023883 
L 231.166516 112.315049 
L 229.480194 111.605927 
L 227.793873 110.896521 
L 226.107551 110.186834 
L 224.421229 109.47687 
L 222.734907 108.766633 
L 221.048585 108.056126 
L 219.362263 107.345352 
L 217.675942 106.634316 
L 215.98962 105.923021 
L 214.303298 105.21147 
L 212.616976 104.499666 
L 210.930654 103.787612 
L 209.244332 103.075312 
L 207.558011 102.36277 
L 205.871689 101.649987 
L 204.185367 100.936968 
L 202.499045 100.223715 
L 200.812723 99.510232 
L 199.126401 98.79652 
L 197.44008 98.082584 
L 195.753758 97.368426 
L 194.067436 96.654048 
L 192.381114 95.939454 
L 190.694792 95.224647 
L 189.00847 94.509628 
L 187.322149 93.794401 
L 185.635827 93.078969 
L 183.949505 92.363333 
L 182.263183 91.647497 
L 180.576861 90.931463 
L 178.890539 90.215233 
L 177.204218 89.49881 
L 175.517896 88.782197 
L 173.831574 88.065395 
L 172.145252 87.348407 
L 170.45893 86.631235 
L 168.772609 85.913881 
L 167.086287 85.196349 
L 165.399965 84.478639 
L 163.713643 83.760754 
L 162.027321 83.042697 
L 160.340999 82.324469 
L 158.654678 81.606072 
L 156.968356 80.887509 
L 155.282034 80.168781 
L 153.595712 79.449891 
L 151.90939 78.73084 
L 150.223068 78.01163 
L 148.536747 77.292263 
L 146.850425 76.572742 
L 145.164103 75.853067 
L 143.477781 75.133241 
L 141.791459 74.413266 
L 140.105137 73.693143 
L 138.418816 72.972874 
L 136.732494 72.252461 
L 135.046172 71.531905 
L 133.35985 70.811208 
L 131.673528 70.090372 
L 129.987206 69.369398 
L 128.300885 68.648288 
L 126.614563 67.927044 
L 124.928241 67.205667 
L 123.241919 66.484158 
L 121.555597 65.76252 
L 119.869275 65.040753 
L 118.182954 64.318859 
L 116.496632 63.596839 
L 114.81031 62.874696 
L 113.123988 62.15243 
L 111.437666 61.430042 
L 109.751344 60.707535 
L 108.065023 59.984909 
L 106.378701 59.262166 
L 104.692379 58.539307 
L 103.006057 57.816333 
L 101.319735 57.093246 
L 99.633413 56.370046 
L 97.947092 55.646736 
L 96.26077 54.923317 
L 94.574448 54.199788 
L 92.888126 53.476153 
L 91.201804 52.752411 
L 89.515482 52.028565 
L 87.829161 51.304615 
L 86.142839 50.580562 
L 84.456517 49.856407 
L 82.770195 49.132152 
L 81.083873 48.407798 
L 79.397551 47.683345 
L 77.71123 46.958796 
L 76.024908 46.23415 
L 74.338586 45.509408 
L 72.652264 44.784573 
L 70.965942 44.059644 
L 69.279621 43.334624 
L 67.593299 42.609512 
L 65.906977 41.884309 
L 64.220655 41.159018 
L 62.534333 40.433638 
L 60.848011 39.70817 
z
" clip-path="url(#p750b689ffd)" style="fill: #b4c0e4; fill-opacity: 0.22"/>
   </g>
   <g id="matplotlib.axis_1">
    <g id="xtick_1">
     <g id="line2d_1">
      <defs>
       <path id="m22372853ae" d="M 0 0 
L 0 3.5 
" style="stroke: #000000; stroke-width: 0.8"/>
      </defs>
      <g>
       <use xlink:href="#m22372853ae" x="80.240712" y="282.69225" style="stroke: #000000; stroke-width: 0.8"/>
      </g>
     </g>
     <g id="text_1">
      <text style="font-size: 7px; font-family: 'SimHei', 'Arial', 'DejaVu Sans', sans-serif; text-anchor: middle" x="80.240712" y="294.50475" transform="rotate(-0 80.240712 294.50475)">0.2</text>
     </g>
    </g>
    <g id="xtick_2">
     <g id="line2d_2">
      <g>
       <use xlink:href="#m22372853ae" x="177.204218" y="282.69225" style="stroke: #000000; stroke-width: 0.8"/>
      </g>
     </g>
     <g id="text_2">
      <text style="font-size: 7px; font-family: 'SimHei', 'Arial', 'DejaVu Sans', sans-serif; text-anchor: middle" x="177.204218" y="294.50475" transform="rotate(-0 177.204218 294.50475)">0.3</text>
     </g>
    </g>
    <g id="xtick_3">
     <g id="line2d_3">
      <g>
       <use xlink:href="#m22372853ae" x="274.167723" y="282.69225" style="stroke: #000000; stroke-width: 0.8"/>
      </g>
     </g>
     <g id="text_3">
      <text style="font-size: 7px; font-family: 'SimHei', 'Arial', 'DejaVu Sans', sans-serif; text-anchor: middle" x="274.167723" y="294.50475" transform="rotate(-0 274.167723 294.50475)">0.4</text>
     </g>
    </g>
    <g id="xtick_4">
     <g id="line2d_4">
      <g>
       <use xlink:href="#m22372853ae" x="371.131228" y="282.69225" style="stroke: #000000; stroke-width: 0.8"/>
      </g>
     </g>
     <g id="text_4">
      <text style="font-size: 7px; font-family: 'SimHei', 'Arial', 'DejaVu Sans', sans-serif; text-anchor: middle" x="371.131228" y="294.50475" transform="rotate(-0 371.131228 294.50475)">0.5</text>
     </g>
    </g>
    <g id="xtick_5">
     <g id="line2d_5">
      <g>
       <use xlink:href="#m22372853ae" x="468.094733" y="282.69225" style="stroke: #000000; stroke-width: 0.8"/>
      </g>
     </g>
     <g id="text_5">
      <text style="font-size: 7px; font-family: 'SimHei', 'Arial', 'DejaVu Sans', sans-serif; text-anchor: middle" x="468.094733" y="294.50475" transform="rotate(-0 468.094733 294.50475)">0.6</text>
     </g>
    </g>
    <g id="xtick_6">
     <g id="line2d_6">
      <g>
       <use xlink:href="#m22372853ae" x="565.058239" y="282.69225" style="stroke: #000000; stroke-width: 0.8"/>
      </g>
     </g>
     <g id="text_6">
      <text style="font-size: 7px; font-family: 'SimHei', 'Arial', 'DejaVu Sans', sans-serif; text-anchor: middle" x="565.058239" y="294.50475" transform="rotate(-0 565.058239 294.50475)">0.7</text>
     </g>
    </g>
    <g id="text_7">
     <text style="font-size: 9px; font-family: 'SimHei', 'Arial', 'DejaVu Sans', sans-serif; text-anchor: middle" x="312.953125" y="308.797719" transform="rotate(-0 312.953125 308.797719)">基期二产占比  S2_2011 = 1/(1 + M_2011)</text>
    </g>
   </g>
   <g id="matplotlib.axis_2">
    <g id="ytick_1">
     <g id="line2d_7">
      <defs>
       <path id="ma8d3c09836" d="M 0 0 
L -3.5 0 
" style="stroke: #000000; stroke-width: 0.8"/>
      </defs>
      <g>
       <use xlink:href="#ma8d3c09836" x="35.6375" y="280.584626" style="stroke: #000000; stroke-width: 0.8"/>
      </g>
     </g>
     <g id="text_8">
      <text style="font-size: 7px; font-family: 'SimHei', 'Arial', 'DejaVu Sans', sans-serif; text-anchor: end" x="28.6375" y="282.990876" transform="rotate(-0 28.6375 282.990876)">-4</text>
     </g>
    </g>
    <g id="ytick_2">
     <g id="line2d_8">
      <g>
       <use xlink:href="#ma8d3c09836" x="35.6375" y="245.744472" style="stroke: #000000; stroke-width: 0.8"/>
      </g>
     </g>
     <g id="text_9">
      <text style="font-size: 7px; font-family: 'SimHei', 'Arial', 'DejaVu Sans', sans-serif; text-anchor: end" x="28.6375" y="248.150722" transform="rotate(-0 28.6375 248.150722)">-3</text>
     </g>
    </g>
    <g id="ytick_3">
     <g id="line2d_9">
      <g>
       <use xlink:href="#ma8d3c09836" x="35.6375" y="210.904318" style="stroke: #000000; stroke-width: 0.8"/>
      </g>
     </g>
     <g id="text_10">
      <text style="font-size: 7px; font-family: 'SimHei', 'Arial', 'DejaVu Sans', sans-serif; text-anchor: end" x="28.6375" y="213.310568" transform="rotate(-0 28.6375 213.310568)">-2</text>
     </g>
    </g>
    <g id="ytick_4">
     <g id="line2d_10">
      <g>
       <use xlink:href="#ma8d3c09836" x="35.6375" y="176.064165" style="stroke: #000000; stroke-width: 0.8"/>
      </g>
     </g>
     <g id="text_11">
      <text style="font-size: 7px; font-family: 'SimHei', 'Arial', 'DejaVu Sans', sans-serif; text-anchor: end" x="28.6375" y="178.470415" transform="rotate(-0 28.6375 178.470415)">-1</text>
     </g>
    </g>
    <g id="ytick_5">
     <g id="line2d_11">
      <g>
       <use xlink:href="#ma8d3c09836" x="35.6375" y="141.224011" style="stroke: #000000; stroke-width: 0.8"/>
      </g>
     </g>
     <g id="text_12">
      <text style="font-size: 7px; font-family: 'SimHei', 'Arial', 'DejaVu Sans', sans-serif; text-anchor: end" x="28.6375" y="143.630261" transform="rotate(-0 28.6375 143.630261)">0</text>
     </g>
    </g>
    <g id="ytick_6">
     <g id="line2d_12">
      <g>
       <use xlink:href="#ma8d3c09836" x="35.6375" y="106.383857" style="stroke: #000000; stroke-width: 0.8"/>
      </g>
     </g>
     <g id="text_13">
      <text style="font-size: 7px; font-family: 'SimHei', 'Arial', 'DejaVu Sans', sans-serif; text-anchor: end" x="28.6375" y="108.790107" transform="rotate(-0 28.6375 108.790107)">1</text>
     </g>
    </g>
    <g id="ytick_7">
     <g id="line2d_13">
      <g>
       <use xlink:href="#ma8d3c09836" x="35.6375" y="71.543703" style="stroke: #000000; stroke-width: 0.8"/>
      </g>
     </g>
     <g id="text_14">
      <text style="font-size: 7px; font-family: 'SimHei', 'Arial', 'DejaVu Sans', sans-serif; text-anchor: end" x="28.6375" y="73.949953" transform="rotate(-0 28.6375 73.949953)">2</text>
     </g>
    </g>
    <g id="ytick_8">
     <g id="line2d_14">
      <g>
       <use xlink:href="#ma8d3c09836" x="35.6375" y="36.70355" style="stroke: #000000; stroke-width: 0.8"/>
      </g>
     </g>
     <g id="text_15">
      <text style="font-size: 7px; font-family: 'SimHei', 'Arial', 'DejaVu Sans', sans-serif; text-anchor: end" x="28.6375" y="39.1098" transform="rotate(-0 28.6375 39.1098)">3</text>
     </g>
    </g>
    <g id="text_16">
     <text style="font-size: 9px; font-family: 'SimHei', 'Arial', 'DejaVu Sans', sans-serif; text-anchor: middle" x="14.5125" y="155.414875" transform="rotate(-90 14.5125 155.414875)">X 对 M 的边际效应  ∂M/∂X</text>
    </g>
   </g>
   <g id="line2d_15">
    <path d="M 35.6375 141.224011 
L 590.26875 141.224011 
" clip-path="url(#p750b689ffd)" style="fill: none; stroke-dasharray: 0.5,0.825; stroke-dashoffset: 0; stroke: #767676; stroke-opacity: 0.4; stroke-width: 0.5"/>
   </g>
   <g id="line2d_16">
    <path d="M 251.873526 282.69225 
L 251.873526 28.1375 
" clip-path="url(#p750b689ffd)" style="fill: none; stroke-dasharray: 3.33,1.44; stroke-dashoffset: 0; stroke: #767676; stroke-opacity: 0.5; stroke-width: 0.9"/>
   </g>
   <g id="line2d_17">
    <path d="M 373.846206 282.69225 
L 373.846206 28.1375 
" clip-path="url(#p750b689ffd)" style="fill: none; stroke-dasharray: 2.59,1.12; stroke-dashoffset: 0; stroke: #b64342; stroke-opacity: 0.45; stroke-width: 0.7"/>
   </g>
   <g id="line2d_18">
    <path d="M 452.095755 282.69225 
L 452.095755 28.1375 
" clip-path="url(#p750b689ffd)" style="fill: none; stroke-dasharray: 2.59,1.12; stroke-dashoffset: 0; stroke: #0f4d92; stroke-opacity: 0.45; stroke-width: 0.7"/>
   </g>
   <g id="patch_3">
    <path d="M 35.6375 282.69225 
L 35.6375 28.1375 
" style="fill: none; stroke: #000000; stroke-width: 0.8; stroke-linejoin: miter; stroke-linecap: square"/>
   </g>
   <g id="patch_4">
    <path d="M 35.6375 282.69225 
L 590.26875 282.69225 
" style="fill: none; stroke: #000000; stroke-width: 0.8; stroke-linejoin: miter; stroke-linecap: square"/>
   </g>
   <g id="text_17">
    <text style="font-weight: 700; font-size: 7.5px; font-family: 'SimHei', 'Arial', 'DejaVu Sans', sans-serif; text-anchor: start; fill: #272727" x="263.509146" y="132.513972" transform="rotate(-0 263.509146 132.513972)">临界点 S2* = 0.377</text>
   </g>
   <g id="text_18">
    <text style="font-weight: 700; font-size: 7px; font-family: 'SimHei', 'Arial', 'DejaVu Sans', sans-serif; fill: #b64342" transform="translate(334.210586 158.120694)">东部均值</text>
    <text style="font-weight: 700; font-size: 7px; font-family: 'SimHei', 'Arial', 'DejaVu Sans', sans-serif; fill: #b64342" transform="translate(334.210586 164.770694)">S2=0.503</text>
   </g>
   <g id="text_19">
    <text style="font-weight: 700; font-size: 7px; font-family: 'SimHei', 'Arial', 'DejaVu Sans', sans-serif; fill: #0f4d92" transform="translate(463.731376 228.445536)">中西部均值</text>
    <text style="font-weight: 700; font-size: 7px; font-family: 'SimHei', 'Arial', 'DejaVu Sans', sans-serif; fill: #0f4d92" transform="translate(463.731376 235.095536)">S2=0.584</text>
   </g>
   <g id="text_20">
    <g id="patch_5">
     <path d="M 97.222465 59.882642 
L 160.222465 59.882642 
Q 161.622465 59.882642 161.622465 58.482642 
L 161.622465 44.367798 
Q 161.622465 42.967798 160.222465 42.967798 
L 97.222465 42.967798 
Q 95.822465 42.967798 95.822465 44.367798 
L 95.822465 58.482642 
Q 95.822465 59.882642 97.222465 59.882642 
z
" style="fill: #ffffff"/>
    </g>
    <text style="font-size: 7px; font-family: 'SimHei', 'Arial', 'DejaVu Sans', sans-serif; fill: #e9a6a1; opacity: 0.85" transform="translate(100.722465 49.973267)">极少数服务型省份</text>
    <text style="font-size: 7px; font-family: 'SimHei', 'Arial', 'DejaVu Sans', sans-serif; fill: #e9a6a1; opacity: 0.85" transform="translate(97.222465 57.607642)">X→M &gt; 0（京、沪）</text>
   </g>
   <g id="text_21">
    <g id="patch_6">
     <path d="M 487.772837 185.307195 
L 564.772837 185.307195 
Q 566.172837 185.307195 566.172837 183.907195 
L 566.172837 169.732195 
Q 566.172837 168.332195 564.772837 168.332195 
L 487.772837 168.332195 
Q 486.372837 168.332195 486.372837 169.732195 
L 486.372837 183.907195 
Q 486.372837 185.307195 487.772837 185.307195 
z
" style="fill: #ffffff"/>
    </g>
    <text style="font-size: 7px; font-family: 'SimHei', 'Arial', 'DejaVu Sans', sans-serif; fill: #7eb5d6; opacity: 0.85" transform="translate(501.772837 175.365008)">广大制造业省份</text>
    <text style="font-size: 7px; font-family: 'SimHei', 'Arial', 'DejaVu Sans', sans-serif; fill: #7eb5d6; opacity: 0.85" transform="translate(487.772837 183.032195)">X→M &lt; 0（新型工业化）</text>
   </g>
   <g id="patch_7">
    <path d="M 436.497506 127.129279 
Q 405.903183 155.718632 376.125743 183.544637 
" style="fill: none; stroke: #b64342; stroke-linecap: round"/>
    <path d="M 379.041645 182.681202 
L 376.125743 183.544637 
L 377.184536 180.693855 
" style="fill: none; stroke: #b64342; stroke-linecap: round"/>
   </g>
   <g id="text_22">
    <g id="patch_8">
     <path d="M 414.01701 125.512509 
L 488.81701 125.512509 
Q 490.51701 125.512509 490.51701 123.812509 
L 490.51701 102.562509 
Q 490.51701 100.862509 488.81701 100.862509 
L 414.01701 100.862509 
Q 412.31701 100.862509 412.31701 102.562509 
L 412.31701 123.812509 
Q 412.31701 125.512509 414.01701 125.512509 
z
" style="fill: #ffffff; opacity: 0.85; stroke: #e9a6a1; stroke-width: 0.5; stroke-linejoin: miter"/>
    </g>
    <text style="font-weight: 700; font-size: 6.8px; font-family: 'SimHei', 'Arial', 'DejaVu Sans', sans-serif; fill: #b64342" transform="translate(431.01701 108.034384)">东部正向驱动</text>
    <text style="font-weight: 700; font-size: 6.8px; font-family: 'SimHei', 'Arial', 'DejaVu Sans', sans-serif; fill: #b64342" transform="translate(424.21701 115.482509)">需叠加制度软环境</text>
    <text style="font-weight: 700; font-size: 6.8px; font-family: 'SimHei', 'Arial', 'DejaVu Sans', sans-serif; fill: #b64342" transform="translate(414.01701 122.962509)">（因果森林：政府效能）</text>
   </g>
   <g id="text_23">
    <g id="patch_9">
     <path d="M 52.276438 272.764512 
L 164.276438 272.764512 
Q 167.076437 272.764512 167.076437 269.964512 
L 167.076437 231.032481 
Q 167.076437 228.232481 164.276438 228.232481 
L 52.276438 228.232481 
Q 49.476438 228.232481 49.476438 231.032481 
L 49.476438 269.964512 
Q 49.476438 272.764512 52.276438 272.764512 
z
" style="fill: #ffffff; opacity: 0.9; stroke: #cccccc; stroke-linejoin: miter"/>
    </g>
    <text style="font-size: 7px; font-family: 'SimHei', 'Arial', 'DejaVu Sans', sans-serif" transform="translate(52.276438 236.364512)">∂M/∂X = β₁ + β₂ × S2_2011</text>
    <text style="font-size: 7px; font-family: 'SimHei', 'Arial', 'DejaVu Sans', sans-serif" transform="translate(52.276438 244.605919)">β₁ = +3.8238***</text>
    <text style="font-size: 7px; font-family: 'SimHei', 'Arial', 'DejaVu Sans', sans-serif" transform="translate(52.276438 252.792637)">β₂ = -10.1425***</text>
    <text style="font-size: 7px; font-family: 'SimHei', 'Arial', 'DejaVu Sans', sans-serif" transform="translate(52.276438 260.405137)">R² = 0.9769</text>
    <text style="font-size: 7px; font-family: 'SimHei', 'Arial', 'DejaVu Sans', sans-serif" transform="translate(52.276438 269.089512)">临界点 S2* = 0.377</text>
   </g>
   <g id="text_24">
    <text style="font-weight: 700; font-size: 11px; font-family: 'SimHei', 'Arial', 'DejaVu Sans', sans-serif; text-anchor: middle; fill: #272727" x="312.953125" y="16.1375" transform="rotate(-0 312.953125 16.1375)">遮掩效应的连续调节机制</text>
   </g>
   <g id="line2d_19">
    <path d="M 60.848011 71.608158 
L 565.058239 255.358613 
L 565.058239 255.358613 
" clip-path="url(#p750b689ffd)" style="fill: none; stroke: #0f4d92; stroke-width: 2.2; stroke-linecap: square"/>
   </g>
   <g id="PathCollection_1">
    <defs>
     <path id="ma50a78754b" d="M 0 3.872983 
C 1.027127 3.872983 2.012324 3.464901 2.738613 2.738613 
C 3.464901 2.012324 3.872983 1.027127 3.872983 0 
C 3.872983 -1.027127 3.464901 -2.012324 2.738613 -2.738613 
C 2.012324 -3.464901 1.027127 -3.872983 0 -3.872983 
C -1.027127 -3.872983 -2.012324 -3.464901 -2.738613 -2.738613 
C -3.464901 -2.012324 -3.872983 -1.027127 -3.872983 0 
C -3.872983 1.027127 -3.464901 2.012324 -2.738613 2.738613 
C -2.012324 3.464901 -1.027127 3.872983 0 3.872983 
z
" style="stroke: #ffffff"/>
    </defs>
    <g clip-path="url(#p750b689ffd)">
     <use xlink:href="#ma50a78754b" x="251.873526" y="141.224011" style="fill: #767676; stroke: #ffffff"/>
    </g>
   </g>
   <g id="PathCollection_2">
    <defs>
     <path id="m3e174a72f6" d="M 0 3.708099 
C 0.983399 3.708099 1.926654 3.317391 2.622022 2.622022 
C 3.317391 1.926654 3.708099 0.983399 3.708099 0 
C 3.708099 -0.983399 3.317391 -1.926654 2.622022 -2.622022 
C 1.926654 -3.317391 0.983399 -3.708099 0 -3.708099 
C -0.983399 -3.708099 -1.926654 -3.317391 -2.622022 -2.622022 
C -3.317391 -1.926654 -3.708099 -0.983399 -3.708099 0 
C -3.708099 0.983399 -3.317391 1.926654 -2.622022 2.622022 
C -1.926654 3.317391 -0.983399 3.708099 0 3.708099 
z
" style="stroke: #ffffff"/>
    </defs>
    <g clip-path="url(#p750b689ffd)">
     <use xlink:href="#m3e174a72f6" x="373.846206" y="185.674786" style="fill: #b64342; stroke: #ffffff"/>
    </g>
   </g>
   <g id="PathCollection_3">
    <defs>
     <path id="m0b31a38b26" d="M 0 3.708099 
C 0.983399 3.708099 1.926654 3.317391 2.622022 2.622022 
C 3.317391 1.926654 3.708099 0.983399 3.708099 0 
C 3.708099 -0.983399 3.317391 -1.926654 2.622022 -2.622022 
C 1.926654 -3.317391 0.983399 -3.708099 0 -3.708099 
C -0.983399 -3.708099 -1.926654 -3.317391 -2.622022 -2.622022 
C -3.317391 -1.926654 -3.708099 -0.983399 -3.708099 0 
C -3.708099 0.983399 -3.317391 1.926654 -2.622022 2.622022 
C -1.926654 3.317391 -0.983399 3.708099 0 3.708099 
z
" style="stroke: #ffffff"/>
    </defs>
    <g clip-path="url(#p750b689ffd)">
     <use xlink:href="#m0b31a38b26" x="452.095755" y="214.191443" style="fill: #0f4d92; stroke: #ffffff"/>
    </g>
   </g>
  </g>
  <g id="text_25">
   <text style="font-size: 6.5px; font-family: 'SimHei', 'Arial', 'DejaVu Sans', sans-serif; text-anchor: middle; fill: #767676" x="298.26875" y="335.1465" transform="rotate(-0 298.26875 335.1465)">注：β₂ &lt; 0 (p&lt;0.001) 证实产业结构是遮掩效应的基础机制。临界点(S2*≈0.377)偏低 → 仅北京等极少数省份自然越过 → 东部大面积正效应需叠加因果森林识别的"制度软环境"驱动。</text>
  </g>
 </g>
 <defs>
  <clipPath id="p750b689ffd">
   <rect x="35.6375" y="28.1375" width="554.63125" height="254.55475"/>
  </clipPath>
 </defs>
</svg>
