<?xml version="1.0" encoding="utf-8" standalone="no"?>
<!DOCTYPE svg PUBLIC "-//W3C//DTD SVG 1.1//EN"
  "http://www.w3.org/Graphics/SVG/1.1/DTD/svg11.dtd">
<svg xmlns:xlink="http://www.w3.org/1999/xlink" width="371.298491pt" height="386.0225pt" viewBox="0 0 371.298491 386.0225" xmlns="http://www.w3.org/2000/svg" version="1.1">
 <metadata>
  <rdf:RDF xmlns:dc="http://purl.org/dc/elements/1.1/" xmlns:cc="http://creativecommons.org/ns#" xmlns:rdf="http://www.w3.org/1999/02/22-rdf-syntax-ns#">
   <cc:Work>
    <dc:type rdf:resource="http://purl.org/dc/dcmitype/StillImage"/>
    <dc:date>2026-05-17T17:23:44.860532</dc:date>
    <dc:format>image/svg+xml</dc:format>
    <dc:creator>
     <cc:Agent>
      <dc:title>Matplotlib v3.10.9, https://matplotlib.org/</dc:title>
     </cc:Agent>
    </dc:creator>
   </cc:Work>
  </rdf:RDF>
 </metadata>
 <defs>
  <style type="text/css">*{stroke-linejoin: round; stroke-linecap: butt}</style>
 </defs>
 <g id="figure_1">
  <g id="patch_1">
   <path d="M 0 386.0225 
L 371.298491 386.0225 
L 371.298491 0 
L 0 0 
z
" style="fill: #ffffff"/>
  </g>
  <g id="patch_2">
   <path d="M 7.2 378.8225 
L 353.885 378.8225 
L 353.885 32.1375 
L 7.2 32.1375 
z
" style="fill: #ffffff"/>
  </g>
  <g id="pane3d_1">
   <g id="patch_3">
    <path d="M 30.365088 288.346837 
L 160.178702 218.508668 
L 159.388424 72.732686 
L 25.023685 131.38748 
" style="fill: #f2f2f2; opacity: 0.5; stroke: #f2f2f2; stroke-linejoin: miter"/>
   </g>
  </g>
  <g id="pane3d_2">
   <g id="patch_4">
    <path d="M 160.178702 218.508668 
L 336.015376 266.123298 
L 341.074823 112.6864 
L 159.388424 72.732686 
" style="fill: #e6e6e6; opacity: 0.5; stroke: #e6e6e6; stroke-linejoin: miter"/>
   </g>
  </g>
  <g id="pane3d_3">
   <g id="patch_5">
    <path d="M 30.365088 288.346837 
L 214.373256 345.246571 
L 336.015376 266.123298 
L 160.178702 218.508668 
" style="fill: #ececec; opacity: 0.5; stroke: #ececec; stroke-linejoin: miter"/>
   </g>
  </g>
  <g id="grid3d_1">
   <g id="Line3DCollection_1">
    <path d="M 30.365088 288.346837 
L 160.178702 218.508668 
L 159.388424 72.732686 
" style="fill: none; stroke: #b0b0b0; stroke-width: 0.8"/>
    <path d="M 53.546189 295.514989 
L 182.438123 224.536274 
L 182.349415 77.781918 
" style="fill: none; stroke: #b0b0b0; stroke-width: 0.8"/>
    <path d="M 77.124094 302.805842 
L 205.046576 230.658393 
L 205.681981 82.912862 
" style="fill: none; stroke: #b0b0b0; stroke-width: 0.8"/>
    <path d="M 101.109082 310.222575 
L 228.012333 236.877267 
L 229.395214 88.127516 
" style="fill: none; stroke: #b0b0b0; stroke-width: 0.8"/>
    <path d="M 125.511785 317.768475 
L 251.343934 243.195206 
L 253.498507 93.427946 
" style="fill: none; stroke: #b0b0b0; stroke-width: 0.8"/>
    <path d="M 150.343212 325.446947 
L 275.050189 249.614599 
L 278.001564 98.816287 
" style="fill: none; stroke: #b0b0b0; stroke-width: 0.8"/>
    <path d="M 175.614761 333.261516 
L 299.140196 256.137907 
L 302.914414 104.294742 
" style="fill: none; stroke: #b0b0b0; stroke-width: 0.8"/>
    <path d="M 201.338239 341.215831 
L 323.623349 262.767674 
L 328.247423 109.865593 
" style="fill: none; stroke: #b0b0b0; stroke-width: 0.8"/>
   </g>
  </g>
  <g id="grid3d_2">
   <g id="Line3DCollection_2">
    <path d="M 35.44662 126.837513 
L 40.408565 282.943567 
L 223.832856 339.093484 
" style="fill: none; stroke: #b0b0b0; stroke-width: 0.8"/>
    <path d="M 75.794767 109.22417 
L 79.32961 262.004511 
L 260.414383 315.298683 
" style="fill: none; stroke: #b0b0b0; stroke-width: 0.8"/>
    <path d="M 114.114729 92.496199 
L 116.355865 242.084829 
L 295.102036 292.735769 
" style="fill: none; stroke: #b0b0b0; stroke-width: 0.8"/>
    <path d="M 150.555683 76.588479 
L 151.622407 223.111852 
L 328.039177 271.311493 
" style="fill: none; stroke: #b0b0b0; stroke-width: 0.8"/>
   </g>
  </g>
  <g id="grid3d_3">
   <g id="Line3DCollection_3">
    <path d="M 336.015376 266.123298 
L 160.178702 218.508668 
L 30.365088 288.346837 
" style="fill: none; stroke: #b0b0b0; stroke-width: 0.8"/>
    <path d="M 336.574593 249.16403 
L 160.091202 202.368322 
L 29.775183 271.012226 
" style="fill: none; stroke: #b0b0b0; stroke-width: 0.8"/>
    <path d="M 337.137973 232.078502 
L 160.003089 186.114818 
L 29.180766 253.545047 
" style="fill: none; stroke: #b0b0b0; stroke-width: 0.8"/>
    <path d="M 337.705563 214.865299 
L 159.914356 169.746963 
L 28.581786 235.943773 
" style="fill: none; stroke: #b0b0b0; stroke-width: 0.8"/>
    <path d="M 338.277411 197.522985 
L 159.824996 153.263545 
L 27.97819 218.206855 
" style="fill: none; stroke: #b0b0b0; stroke-width: 0.8"/>
    <path d="M 338.853564 180.050102 
L 159.735003 136.663336 
L 27.369925 200.332719 
" style="fill: none; stroke: #b0b0b0; stroke-width: 0.8"/>
    <path d="M 339.434071 162.445168 
L 159.644371 119.945091 
L 26.756935 182.319765 
" style="fill: none; stroke: #b0b0b0; stroke-width: 0.8"/>
    <path d="M 340.018982 144.706683 
L 159.553092 103.107545 
L 26.139166 164.166371 
" style="fill: none; stroke: #b0b0b0; stroke-width: 0.8"/>
    <path d="M 340.608347 126.83312 
L 159.461158 86.149418 
L 25.516562 145.870887 
" style="fill: none; stroke: #b0b0b0; stroke-width: 0.8"/>
   </g>
  </g>
  <g id="axis3d_1">
   <g id="line2d_1">
    <path d="M 30.365088 288.346837 
L 214.373256 345.246571 
" style="fill: none; stroke: #000000; stroke-width: 0.7; stroke-linecap: square"/>
   </g>
   <g id="xtick_1">
    <g id="line2d_2">
     <path d="M 31.496384 287.738214 
L 28.097596 289.566721 
" style="fill: none; stroke: #000000; stroke-width: 0.8; stroke-linecap: square"/>
    </g>
    <g id="text_1">
     <text style="font-size: 8px; font-family: 'SimHei', 'Arial', 'DejaVu Sans', sans-serif; text-anchor: middle" x="21.64954" y="308.411609" transform="rotate(-0 21.64954 308.411609)">0.0</text>
    </g>
   </g>
   <g id="xtick_2">
    <g id="line2d_3">
     <path d="M 54.670233 294.895995 
L 51.293188 296.75568 
" style="fill: none; stroke: #000000; stroke-width: 0.8; stroke-linecap: square"/>
    </g>
    <g id="text_2">
     <text style="font-size: 8px; font-family: 'SimHei', 'Arial', 'DejaVu Sans', sans-serif; text-anchor: middle" x="44.841273" y="315.730054" transform="rotate(-0 44.841273 315.730054)">0.1</text>
    </g>
   </g>
   <g id="xtick_3">
    <g id="line2d_4">
     <path d="M 78.240473 302.176212 
L 74.886417 304.067877 
" style="fill: none; stroke: #000000; stroke-width: 0.8; stroke-linecap: square"/>
    </g>
    <g id="text_3">
     <text style="font-size: 8px; font-family: 'SimHei', 'Arial', 'DejaVu Sans', sans-serif; text-anchor: middle" x="68.431459" y="323.174237" transform="rotate(-0 68.431459 323.174237)">0.2</text>
    </g>
   </g>
   <g id="xtick_4">
    <g id="line2d_5">
     <path d="M 102.217361 309.582031 
L 98.887596 311.50651 
" style="fill: none; stroke: #000000; stroke-width: 0.8; stroke-linecap: square"/>
    </g>
    <g id="text_4">
     <text style="font-size: 8px; font-family: 'SimHei', 'Arial', 'DejaVu Sans', sans-serif; text-anchor: middle" x="92.430456" y="330.747425" transform="rotate(-0 92.430456 330.747425)">0.3</text>
    </g>
   </g>
   <g id="xtick_5">
    <g id="line2d_6">
     <path d="M 126.611513 317.116731 
L 123.307397 319.074885 
" style="fill: none; stroke: #000000; stroke-width: 0.8; stroke-linecap: square"/>
    </g>
    <g id="text_5">
     <text style="font-size: 8px; font-family: 'SimHei', 'Arial', 'DejaVu Sans', sans-serif; text-anchor: middle" x="116.848982" y="338.453" transform="rotate(-0 116.848982 338.453)">0.4</text>
    </g>
   </g>
   <g id="xtick_6">
    <g id="line2d_7">
     <path d="M 151.433916 324.783707 
L 148.156869 326.776428 
" style="fill: none; stroke: #000000; stroke-width: 0.8; stroke-linecap: square"/>
    </g>
    <g id="text_6">
     <text style="font-size: 8px; font-family: 'SimHei', 'Arial', 'DejaVu Sans', sans-serif; text-anchor: middle" x="141.698137" y="346.294466" transform="rotate(-0 141.698137 346.294466)">0.5</text>
    </g>
   </g>
   <g id="xtick_7">
    <g id="line2d_8">
     <path d="M 176.695948 332.586472 
L 173.447454 334.614683 
" style="fill: none; stroke: #000000; stroke-width: 0.8; stroke-linecap: square"/>
    </g>
    <g id="text_7">
     <text style="font-size: 8px; font-family: 'SimHei', 'Arial', 'DejaVu Sans', sans-serif; text-anchor: middle" x="166.989412" y="354.275449" transform="rotate(-0 166.989412 354.275449)">0.6</text>
    </g>
   </g>
   <g id="xtick_8">
    <g id="line2d_9">
     <path d="M 202.409392 340.528667 
L 199.191001 342.593324 
" style="fill: none; stroke: #000000; stroke-width: 0.8; stroke-linecap: square"/>
    </g>
    <g id="text_8">
     <text style="font-size: 8px; font-family: 'SimHei', 'Arial', 'DejaVu Sans', sans-serif; text-anchor: middle" x="192.734713" y="362.399706" transform="rotate(-0 192.734713 362.399706)">0.7</text>
    </g>
   </g>
   <g id="text_9">
    <text style="font-size: 9px; font-family: 'SimHei', 'Arial', 'DejaVu Sans', sans-serif; text-anchor: middle" x="96.481444" y="357.217661" transform="rotate(-342.817138 96.481444 357.217661)">新质生产力得分</text>
   </g>
  </g>
  <g id="axis3d_2">
   <g id="line2d_10">
    <path d="M 336.015376 266.123298 
L 214.373256 345.246571 
" style="fill: none; stroke: #000000; stroke-width: 0.7; stroke-linecap: square"/>
   </g>
   <g id="xtick_9">
    <g id="line2d_11">
     <path d="M 222.268128 338.614489 
L 226.967344 340.053015 
" style="fill: none; stroke: #000000; stroke-width: 0.8; stroke-linecap: square"/>
    </g>
    <g id="text_10">
     <text style="font-size: 8px; font-family: 'SimHei', 'Arial', 'DejaVu Sans', sans-serif; text-anchor: middle" x="236.234537" y="358.566537" transform="rotate(-0 236.234537 358.566537)">2011</text>
    </g>
   </g>
   <g id="xtick_10">
    <g id="line2d_12">
     <path d="M 258.872164 314.8448 
L 263.503647 316.207869 
" style="fill: none; stroke: #000000; stroke-width: 0.8; stroke-linecap: square"/>
    </g>
    <g id="text_11">
     <text style="font-size: 8px; font-family: 'SimHei', 'Arial', 'DejaVu Sans', sans-serif; text-anchor: middle" x="272.557573" y="334.353049" transform="rotate(-0 272.557573 334.353049)">2015</text>
    </g>
   </g>
   <g id="xtick_11">
    <g id="line2d_13">
     <path d="M 293.582122 292.305074 
L 298.146495 293.598471 
" style="fill: none; stroke: #000000; stroke-width: 0.8; stroke-linecap: square"/>
    </g>
    <g id="text_12">
     <text style="font-size: 8px; font-family: 'SimHei', 'Arial', 'DejaVu Sans', sans-serif; text-anchor: middle" x="306.996526" y="311.395519" transform="rotate(-0 306.996526 311.395519)">2019</text>
    </g>
   </g>
   <g id="xtick_12">
    <g id="line2d_14">
     <path d="M 326.54131 270.902253 
L 331.039362 272.131187 
" style="fill: none; stroke: #000000; stroke-width: 0.8; stroke-linecap: square"/>
    </g>
    <g id="text_13">
     <text style="font-size: 8px; font-family: 'SimHei', 'Arial', 'DejaVu Sans', sans-serif; text-anchor: middle" x="339.694284" y="289.598696" transform="rotate(-0 339.694284 289.598696)">2023</text>
    </g>
   </g>
   <g id="text_14">
    <text style="font-size: 9px; font-family: 'SimHei', 'Arial', 'DejaVu Sans', sans-serif; text-anchor: middle" x="308.380479" y="340.667923" transform="rotate(-0 308.380479 340.667923)">年份</text>
   </g>
  </g>
  <g id="axis3d_3">
   <g id="line2d_15">
    <path d="M 336.015376 266.123298 
L 341.074823 112.6864 
" style="fill: none; stroke: #000000; stroke-width: 0.7; stroke-linecap: square"/>
   </g>
   <g id="xtick_13">
    <g id="line2d_16">
     <path d="M 334.522974 265.719172 
L 339.004585 266.932743 
" style="fill: none; stroke: #000000; stroke-width: 0.8; stroke-linecap: square"/>
    </g>
    <g id="text_15">
     <text style="font-size: 8px; font-family: 'SimHei', 'Arial', 'DejaVu Sans', sans-serif; text-anchor: middle" x="354.93805" y="270.247449" transform="rotate(-0 354.93805 270.247449)">0</text>
    </g>
   </g>
   <g id="xtick_14">
    <g id="line2d_17">
     <path d="M 335.076383 248.76677 
L 339.575451 249.959727 
" style="fill: none; stroke: #000000; stroke-width: 0.8; stroke-linecap: square"/>
    </g>
    <g id="text_16">
     <text style="font-size: 8px; font-family: 'SimHei', 'Arial', 'DejaVu Sans', sans-serif; text-anchor: middle" x="355.566387" y="253.311562" transform="rotate(-0 355.566387 253.311562)">2</text>
    </g>
   </g>
   <g id="xtick_15">
    <g id="line2d_18">
     <path d="M 335.633911 231.688222 
L 340.150572 232.860223 
" style="fill: none; stroke: #000000; stroke-width: 0.8; stroke-linecap: square"/>
    </g>
    <g id="text_17">
     <text style="font-size: 8px; font-family: 'SimHei', 'Arial', 'DejaVu Sans', sans-serif; text-anchor: middle" x="356.199394" y="236.249802" transform="rotate(-0 356.199394 236.249802)">4</text>
    </g>
   </g>
   <g id="xtick_16">
    <g id="line2d_19">
     <path d="M 336.195602 214.482114 
L 340.729994 215.632814 
" style="fill: none; stroke: #000000; stroke-width: 0.8; stroke-linecap: square"/>
    </g>
    <g id="text_18">
     <text style="font-size: 8px; font-family: 'SimHei', 'Arial', 'DejaVu Sans', sans-serif; text-anchor: middle" x="356.837124" y="219.06076" transform="rotate(-0 356.837124 219.06076)">6</text>
    </g>
   </g>
   <g id="xtick_17">
    <g id="line2d_20">
     <path d="M 336.761504 197.147013 
L 341.313767 198.276057 
" style="fill: none; stroke: #000000; stroke-width: 0.8; stroke-linecap: square"/>
    </g>
    <g id="text_19">
     <text style="font-size: 8px; font-family: 'SimHei', 'Arial', 'DejaVu Sans', sans-serif; text-anchor: middle" x="357.479629" y="201.743007" transform="rotate(-0 357.479629 201.743007)">8</text>
    </g>
   </g>
   <g id="xtick_18">
    <g id="line2d_21">
     <path d="M 337.331665 179.681462 
L 341.901939 180.78849 
" style="fill: none; stroke: #000000; stroke-width: 0.8; stroke-linecap: square"/>
    </g>
    <g id="text_20">
     <text style="font-size: 8px; font-family: 'SimHei', 'Arial', 'DejaVu Sans', sans-serif; text-anchor: middle" x="358.126963" y="184.295092" transform="rotate(-0 358.126963 184.295092)">10</text>
    </g>
   </g>
   <g id="xtick_19">
    <g id="line2d_22">
     <path d="M 337.906133 162.083983 
L 342.494561 163.168631 
" style="fill: none; stroke: #000000; stroke-width: 0.8; stroke-linecap: square"/>
    </g>
    <g id="text_21">
     <text style="font-size: 8px; font-family: 'SimHei', 'Arial', 'DejaVu Sans', sans-serif; text-anchor: middle" x="358.779181" y="166.715541" transform="rotate(-0 358.779181 166.715541)">12</text>
    </g>
   </g>
   <g id="xtick_20">
    <g id="line2d_23">
     <path d="M 338.484956 144.353075 
L 343.091684 145.414971 
" style="fill: none; stroke: #000000; stroke-width: 0.8; stroke-linecap: square"/>
    </g>
    <g id="text_22">
     <text style="font-size: 8px; font-family: 'SimHei', 'Arial', 'DejaVu Sans', sans-serif; text-anchor: middle" x="359.436338" y="149.00286" transform="rotate(-0 359.436338 149.00286)">14</text>
    </g>
   </g>
   <g id="xtick_21">
    <g id="line2d_24">
     <path d="M 339.068185 126.487216 
L 343.693358 127.52598 
" style="fill: none; stroke: #000000; stroke-width: 0.8; stroke-linecap: square"/>
    </g>
    <g id="text_23">
     <text style="font-size: 8px; font-family: 'SimHei', 'Arial', 'DejaVu Sans', sans-serif; text-anchor: middle" x="360.098491" y="131.15553" transform="rotate(-0 360.098491 131.15553)">16</text>
    </g>
   </g>
   <g id="text_24">
    <text style="font-size: 9px; font-family: 'SimHei', 'Arial', 'DejaVu Sans', sans-serif; text-anchor: middle" x="386.871585" y="190.53441" transform="rotate(-0 386.871585 190.53441)">核密度</text>
   </g>
  </g>
  <g id="axes_1">
   <g id="line2d_25">
    <path d="M 38.311854 216.979675 
L 39.283597 164.615279 
L 39.771102 151.966474 
L 40.421496 144.422681 
L 41.257914 142.832585 
L 42.277878 147.225273 
L 43.454263 156.816843 
L 44.741678 170.196779 
L 48.749176 216.151122 
L 49.999687 228.911229 
L 51.177573 239.322855 
L 52.286841 247.478394 
L 53.340672 253.791521 
L 54.355867 258.813533 
L 56.327451 266.905386 
L 58.262941 273.826912 
L 59.214046 276.721352 
L 60.147221 278.97854 
L 61.057771 280.412657 
L 61.943088 280.909857 
L 62.803241 280.452678 
L 63.640952 279.122597 
L 64.461198 277.088636 
L 67.713325 267.269358 
L 68.557477 265.876943 
L 69.425339 265.373493 
L 70.317955 265.820996 
L 71.23302 267.149042 
L 72.165475 269.173743 
L 74.05669 274.317232 
L 75.948029 279.520332 
L 77.819896 283.955053 
L 78.746232 285.774181 
L 79.664751 287.257811 
L 80.574311 288.3477 
L 81.474462 289.014122 
L 82.366129 289.286998 
L 83.251878 289.270561 
L 85.021608 289.064692 
L 85.91364 289.240932 
L 86.81384 289.766643 
L 87.722361 290.658554 
L 89.556556 293.21052 
L 91.394396 295.904317 
L 92.309116 297.034788 
L 93.219991 297.963857 
L 94.127319 298.700363 
L 95.934542 299.735734 
L 97.7374 300.445169 
L 103.151411 302.150295 
L 223.832856 339.093484 
L 223.832856 339.093484 
" clip-path="url(#p87bf6217ff)" style="fill: none; stroke: #0f4d92; stroke-width: 2; stroke-linecap: square"/>
   </g>
   <g id="line2d_26">
    <path d="M 79.32289 261.714086 
L 80.172752 261.756901 
L 81.020337 261.673334 
L 81.864344 261.402665 
L 82.703079 260.864581 
L 83.534445 259.957863 
L 84.355988 258.561647 
L 85.165021 256.540385 
L 85.958851 253.753449 
L 86.735094 250.069762 
L 87.492078 245.38696 
L 88.229276 239.653511 
L 88.947732 232.891002 
L 90.342161 216.835027 
L 92.427756 191.081374 
L 93.156022 183.778904 
L 93.914871 177.864967 
L 94.710275 173.687635 
L 95.545512 171.468295 
L 96.420836 171.278393 
L 97.333579 173.037047 
L 98.278633 176.529423 
L 99.249219 181.441451 
L 101.23683 194.034965 
L 105.2227 221.041754 
L 107.16531 232.254217 
L 109.066498 241.32541 
L 110.931912 248.453999 
L 112.769286 253.98944 
L 114.585288 258.24616 
L 115.486778 259.963783 
L 116.384503 261.431829 
L 117.278816 262.66457 
L 118.170062 263.676263 
L 119.0586 264.482884 
L 119.944806 265.102518 
L 120.82906 265.554416 
L 121.711716 265.85722 
L 122.593084 266.027204 
L 124.352925 266.018063 
L 126.110237 265.611584 
L 128.746078 264.547919 
L 130.507854 263.888524 
L 131.391369 263.682335 
L 132.277024 263.597419 
L 133.164941 263.650701 
L 134.055104 263.84779 
L 134.94738 264.184227 
L 136.737423 265.225373 
L 138.533333 266.661747 
L 140.333885 268.415205 
L 142.138384 270.451038 
L 145.755219 275.059443 
L 147.563969 277.247977 
L 149.370315 279.009735 
L 150.272227 279.663054 
L 151.173278 280.145925 
L 152.073572 280.458756 
L 152.973303 280.614615 
L 154.772202 280.567915 
L 157.474126 280.244332 
L 158.376907 280.25607 
L 159.281058 280.390465 
L 160.186614 280.667296 
L 161.093517 281.091089 
L 162.910745 282.324957 
L 169.287782 287.509196 
L 171.111862 288.533334 
L 172.937279 289.340734 
L 175.67884 290.31096 
L 182.095197 292.248376 
L 260.414383 315.298683 
L 260.414383 315.298683 
" clip-path="url(#p87bf6217ff)" style="fill: none; stroke: #3775ba; stroke-width: 2; stroke-linecap: square"/>
   </g>
   <g id="line2d_27">
    <path d="M 116.355864 242.084803 
L 130.787037 246.069652 
L 133.347087 246.595043 
L 135.054867 246.797653 
L 136.762701 246.790224 
L 138.469632 246.455341 
L 139.322404 246.117907 
L 140.174506 245.637345 
L 141.025781 244.988928 
L 141.876081 244.146723 
L 142.725271 243.08447 
L 143.573245 241.776731 
L 144.419937 240.200294 
L 145.265331 238.335825 
L 146.109474 236.16967 
L 147.79457 230.917376 
L 149.477186 224.516986 
L 152.003914 213.402445 
L 154.547393 202.072809 
L 156.259753 195.553017 
L 157.122204 192.868386 
L 157.989146 190.669203 
L 158.860648 189.016131 
L 159.736647 187.953886 
L 160.61695 187.509478 
L 161.501249 187.691421 
L 162.38914 188.489923 
L 163.280146 189.877978 
L 164.173736 191.813224 
L 165.06936 194.240393 
L 166.864519 200.302063 
L 168.661565 207.473567 
L 174.037266 229.894936 
L 175.820488 236.236959 
L 177.599827 241.639387 
L 179.376331 246.075366 
L 181.151169 249.606542 
L 182.92544 252.339449 
L 184.700085 254.386747 
L 186.475874 255.843183 
L 188.253452 256.780404 
L 190.033363 257.257529 
L 191.816057 257.338944 
L 193.601846 257.109353 
L 196.286547 256.428029 
L 198.977959 255.729607 
L 200.77532 255.451388 
L 202.574602 255.415554 
L 204.3754 255.651792 
L 206.177456 256.147764 
L 207.980672 256.862349 
L 210.687722 258.234852 
L 213.397539 259.862307 
L 216.109891 261.71325 
L 218.8243 263.800528 
L 223.353026 267.653539 
L 226.983434 270.638884 
L 229.713352 272.551598 
L 232.450774 274.104229 
L 235.196039 275.326572 
L 237.948955 276.288297 
L 240.709389 277.040581 
L 243.47767 277.589118 
L 246.254472 277.912459 
L 249.040126 278.017941 
L 254.632167 278.068149 
L 256.498719 278.276264 
L 258.364719 278.682003 
L 260.229573 279.307009 
L 262.093305 280.134145 
L 264.888312 281.636603 
L 270.489975 284.736531 
L 273.302452 286.028517 
L 277.065988 287.44738 
L 281.789275 288.931274 
L 295.102037 292.735734 
L 295.102037 292.735734 
" clip-path="url(#p87bf6217ff)" style="fill: none; stroke: #e9a6a1; stroke-width: 2; stroke-linecap: square"/>
   </g>
   <g id="line2d_28">
    <path d="M 151.619522 222.715554 
L 154.123709 222.970964 
L 155.794692 222.956177 
L 157.466716 222.73169 
L 159.139672 222.23674 
L 160.813527 221.408528 
L 162.488366 220.189395 
L 164.164427 218.536049 
L 165.842113 216.429807 
L 167.521987 213.886259 
L 169.204734 210.962356 
L 172.581771 204.417415 
L 175.127059 199.526393 
L 176.830501 196.618069 
L 178.539151 194.194749 
L 179.39532 193.209907 
L 180.252629 192.394594 
L 181.110991 191.758378 
L 181.970313 191.307233 
L 182.830495 191.043491 
L 183.691432 190.965903 
L 184.553021 191.069837 
L 185.415163 191.347576 
L 186.277762 191.788711 
L 187.140735 192.380603 
L 188.867509 193.958039 
L 190.595027 195.95393 
L 193.187158 199.453712 
L 203.567663 214.235618 
L 207.901692 219.846678 
L 212.242184 225.151591 
L 215.720811 229.027346 
L 218.335047 231.562003 
L 220.081162 233.011887 
L 221.830411 234.239303 
L 223.583166 235.23063 
L 225.339691 235.987117 
L 227.100099 236.526412 
L 228.864326 236.882077 
L 231.51724 237.176685 
L 236.840549 237.625182 
L 239.50683 238.144514 
L 241.284796 238.68592 
L 243.062698 239.400435 
L 245.72913 240.786884 
L 248.395362 242.486804 
L 252.842079 245.683416 
L 256.407271 248.18985 
L 259.088841 249.851991 
L 261.778717 251.246743 
L 264.47778 252.351497 
L 267.186196 253.186456 
L 269.903444 253.806851 
L 275.359443 254.739016 
L 279.007317 255.426805 
L 282.659402 256.361559 
L 286.314193 257.586322 
L 291.804635 259.768323 
L 296.395122 261.55567 
L 300.082525 262.765883 
L 303.785668 263.709882 
L 307.504746 264.406234 
L 318.728611 266.225146 
L 321.540401 266.956591 
L 325.28946 268.20197 
L 328.102145 269.297504 
L 328.102145 269.297504 
" clip-path="url(#p87bf6217ff)" style="fill: none; stroke: #b64342; stroke-width: 2; stroke-linecap: square"/>
   </g>
   <g id="Poly3DCollection_1">
    <path d="M 151.622407 223.111852 
L 151.619522 222.715554 
L 152.453919 222.830034 
L 153.288655 222.916935 
L 154.123709 222.970964 
L 154.959062 222.986211 
L 155.794692 222.956177 
L 156.630582 222.873828 
L 157.466716 222.73169 
L 158.303082 222.521973 
L 159.139672 222.23674 
L 159.976485 221.868116 
L 160.813527 221.408528 
L 161.650812 220.850988 
L 162.488366 220.189395 
L 163.326223 219.418864 
L 164.164427 218.536049 
L 165.003035 217.539469 
L 165.842113 216.429807 
L 166.681736 215.210163 
L 167.521987 213.886259 
L 168.362955 212.466568 
L 169.204734 210.962356 
L 170.047417 209.387628 
L 170.891095 207.758967 
L 171.735854 206.095279 
L 172.581771 204.417415 
L 173.428912 202.747722 
L 174.27733 201.109498 
L 175.127059 199.526393 
L 175.978116 198.021772 
L 176.830501 196.618069 
L 177.684193 195.336154 
L 178.539151 194.194749 
L 179.39532 193.209907 
L 180.252629 192.394594 
L 181.110991 191.758378 
L 181.970313 191.307233 
L 182.830495 191.043491 
L 183.691432 190.965903 
L 184.553021 191.069837 
L 185.415163 191.347576 
L 186.277762 191.788711 
L 187.140735 192.380603 
L 188.004005 193.108894 
L 188.867509 193.958039 
L 189.731196 194.911834 
L 190.595027 195.95393 
L 191.458974 197.068295 
L 192.32302 198.239631 
L 193.187158 199.453712 
L 194.051388 200.697657 
L 194.915718 201.960114 
L 195.78016 203.231382 
L 196.644728 204.50344 
L 197.509439 205.769931 
L 198.37431 207.026066 
L 199.239357 208.268501 
L 200.104594 209.49516 
L 200.970034 210.705041 
L 201.835688 211.898004 
L 202.701562 213.074553 
L 203.567663 214.235618 
L 204.433994 215.382352 
L 205.30056 216.515938 
L 206.167362 217.637418 
L 207.034404 218.747548 
L 207.901692 219.846678 
L 208.769232 220.934654 
L 209.637035 222.010759 
L 210.505114 223.073672 
L 211.37349 224.121459 
L 212.242184 225.151591 
L 213.111226 226.16099 
L 213.980651 227.146095 
L 214.850498 228.102957 
L 215.720811 229.027346 
L 216.591638 229.914883 
L 217.463032 230.761183 
L 218.335047 231.562003 
L 219.207739 232.313401 
L 220.081162 233.011887 
L 220.955369 233.654572 
L 221.830411 234.239303 
L 222.706331 234.764776 
L 223.583166 235.23063 
L 224.460946 235.637514 
L 225.339691 235.987117 
L 226.219409 236.282168 
L 227.100099 236.526412 
L 227.981746 236.724535 
L 228.864326 236.882077 
L 229.747801 237.005307 
L 230.632125 237.101082 
L 231.51724 237.176685 
L 232.403082 237.239658 
L 233.289578 237.297623 
L 234.176653 237.35811 
L 235.064227 237.42839 
L 235.952219 237.515316 
L 236.840549 237.625182 
L 237.729141 237.763598 
L 238.617923 237.935389 
L 239.50683 238.144514 
L 240.395803 238.394002 
L 241.284796 238.68592 
L 242.173769 239.021357 
L 243.062698 239.400435 
L 243.951567 239.822331 
L 244.840374 240.285329 
L 245.72913 240.786884 
L 246.617856 241.323704 
L 247.506585 241.891841 
L 248.395362 242.486804 
L 249.284239 243.103669 
L 250.173279 243.737202 
L 251.062549 244.381982 
L 251.952123 245.032529 
L 252.842079 245.683416 
L 253.732493 246.329388 
L 254.623446 246.96546 
L 255.515014 247.587009 
L 256.407271 248.18985 
L 257.300287 248.770295 
L 258.194124 249.3252 
L 259.088841 249.851991 
L 259.984486 250.348681 
L 260.8811 250.813871 
L 261.778717 251.246743 
L 262.677361 251.647036 
L 263.577046 252.015027 
L 264.47778 252.351497 
L 265.379558 252.6577 
L 266.28237 252.935325 
L 267.186196 253.186456 
L 268.091009 253.413536 
L 268.996772 253.619325 
L 269.903444 253.806851 
L 270.810974 253.979364 
L 271.719309 254.140286 
L 272.628387 254.293148 
L 273.538147 254.441531 
L 274.448521 254.588996 
L 275.359443 254.739016 
L 276.270846 254.894898 
L 277.182665 255.059713 
L 278.094841 255.23622 
L 279.007317 255.426805 
L 279.920046 255.63342 
L 280.832989 255.857535 
L 281.746114 256.100107 
L 282.659402 256.361559 
L 283.572846 256.641779 
L 284.486448 256.940135 
L 285.400222 257.255505 
L 286.314193 257.586322 
L 287.228396 257.930636 
L 288.142875 258.286176 
L 289.05768 258.65043 
L 289.972867 259.020719 
L 290.888498 259.394277 
L 291.804635 259.768323 
L 292.721343 260.140133 
L 293.638686 260.507101 
L 294.556725 260.866789 
L 295.475519 261.216972 
L 296.395122 261.55567 
L 297.315584 261.881177 
L 298.236948 262.192075 
L 299.159251 262.487247 
L 300.082525 262.765883 
L 301.006791 263.027489 
L 301.932067 263.271882 
L 302.858359 263.499197 
L 303.785668 263.709882 
L 304.713983 263.904702 
L 305.643287 264.084731 
L 306.573553 264.25135 
L 307.504746 264.406234 
L 308.43682 264.551337 
L 309.369722 264.688867 
L 310.303391 264.821254 
L 311.237759 264.951112 
L 312.172752 265.081182 
L 313.108292 265.21428 
L 314.044299 265.353221 
L 314.980691 265.500754 
L 315.91739 265.659483 
L 316.85432 265.831791 
L 317.791414 266.019768 
L 318.728611 266.225146 
L 319.665864 266.449245 
L 320.603135 266.692931 
L 321.540401 266.956591 
L 322.477654 267.240125 
L 323.414899 267.542954 
L 324.352157 267.864048 
L 325.28946 268.20197 
L 326.226854 268.554933 
L 327.164394 268.920869 
L 328.102145 269.297504 
L 328.039177 271.311493 
z
" clip-path="url(#p87bf6217ff)" style="fill: #b64342; fill-opacity: 0.45"/>
    <path d="M 116.355865 242.084829 
L 116.355864 242.084803 
L 117.200756 242.324197 
L 118.046155 242.563718 
L 118.892061 242.803355 
L 119.738474 243.043088 
L 120.585394 243.282888 
L 121.432821 243.522705 
L 122.280754 243.762464 
L 123.129193 244.002047 
L 123.978136 244.241278 
L 124.827579 244.479894 
L 125.67752 244.71751 
L 126.527951 244.953569 
L 127.378865 245.187282 
L 128.230249 245.417548 
L 129.082088 245.64285 
L 129.93436 245.861132 
L 130.787037 246.069652 
L 131.640083 246.264803 
L 132.493451 246.441918 
L 133.347087 246.595043 
L 134.20092 246.716703 
L 135.054867 246.797653 
L 135.908832 246.826648 
L 136.762701 246.790224 
L 137.616348 246.67255 
L 138.469632 246.455341 
L 139.322404 246.117907 
L 140.174506 245.637345 
L 141.025781 244.988928 
L 141.876081 244.146723 
L 142.725271 243.08447 
L 143.573245 241.776731 
L 144.419937 240.200294 
L 145.265331 238.335825 
L 146.109474 236.16967 
L 146.952486 233.695748 
L 147.79457 230.917376 
L 148.636013 227.848905 
L 149.477186 224.516986 
L 150.318541 220.961318 
L 151.160594 217.234722 
L 152.003914 213.402445 
L 152.849095 209.540636 
L 153.696732 205.734015 
L 154.547393 202.072809 
L 155.40159 198.649131 
L 156.259753 195.553017 
L 157.122204 192.868386 
L 157.989146 190.669203 
L 158.860648 189.016131 
L 159.736647 187.953886 
L 160.61695 187.509478 
L 161.501249 187.691421 
L 162.38914 188.489923 
L 163.280146 189.877978 
L 164.173736 191.813224 
L 165.06936 194.240393 
L 165.966465 197.09414 
L 166.864519 200.302063 
L 167.763031 203.787729 
L 168.661565 207.473567 
L 169.559746 211.283501 
L 170.457273 215.145258 
L 171.353914 218.9923 
L 172.249511 222.76535 
L 173.143972 226.413507 
L 174.037266 229.894936 
L 174.929415 233.177163 
L 175.820488 236.236959 
L 176.710583 239.059867 
L 177.599827 241.639387 
L 178.488361 243.975898 
L 179.376331 246.075366 
L 180.263886 247.947942 
L 181.151169 249.606542 
L 182.038312 251.06551 
L 182.92544 252.339449 
L 183.812664 253.442305 
L 184.700085 254.386747 
L 185.587794 255.183867 
L 186.475874 255.843183 
L 187.364403 256.372905 
L 188.253452 256.780404 
L 189.143085 257.07279 
L 190.033363 257.257529 
L 190.924339 257.343002 
L 191.816057 257.338944 
L 192.708552 257.256713 
L 193.601846 257.109353 
L 194.495949 256.911459 
L 195.390855 256.67884 
L 196.286547 256.428029 
L 197.182992 256.175682 
L 198.080147 255.937908 
L 198.977959 255.729607 
L 199.876371 255.563855 
L 200.77532 255.451388 
L 201.674749 255.400242 
L 202.574602 255.415554 
L 203.474831 255.499562 
L 204.3754 255.651792 
L 205.27628 255.869417 
L 206.177456 256.147764 
L 207.078919 256.480914 
L 207.980672 256.862349 
L 208.882718 257.28558 
L 209.785066 257.744708 
L 210.687722 258.234852 
L 211.590689 258.752424 
L 212.493964 259.295216 
L 213.397539 259.862307 
L 214.301397 260.453809 
L 215.205522 261.070477 
L 216.109891 261.71325 
L 217.014486 262.38277 
L 217.919291 263.078933 
L 218.8243 263.800528 
L 219.729518 264.545006 
L 220.634961 265.308399 
L 221.540662 266.085387 
L 222.446665 266.869519 
L 223.353026 267.653539 
L 224.259811 268.429802 
L 225.167093 269.190713 
L 226.074943 269.929157 
L 226.983434 270.638884 
L 227.892629 271.314796 
L 228.802587 271.953144 
L 229.713352 272.551598 
L 230.624959 273.109215 
L 231.53743 273.626307 
L 232.450774 274.104229 
L 233.364995 274.545121 
L 234.280087 274.951621 
L 235.196039 275.326572 
L 236.11284 275.672755 
L 237.030481 275.992658 
L 237.948955 276.288297 
L 238.868259 276.561091 
L 239.7884 276.811808 
L 240.709389 277.040581 
L 241.631247 277.246983 
L 242.553998 277.430177 
L 243.47767 277.589118 
L 244.402291 277.72281 
L 245.327886 277.830595 
L 246.254472 277.912459 
L 247.182053 277.969325 
L 248.110616 278.003315 
L 249.040126 278.017941 
L 249.970524 278.018198 
L 250.901729 278.01054 
L 251.833631 278.002718 
L 252.766103 278.003485 
L 253.698999 278.022169 
L 254.632167 278.068149 
L 255.565454 278.150271 
L 256.498719 278.276264 
L 257.431838 278.452189 
L 258.364719 278.682003 
L 259.297303 278.967263 
L 260.229573 279.307009 
L 261.161553 279.697834 
L 262.093305 280.134145 
L 263.024929 280.608571 
L 263.956549 281.112487 
L 264.888312 281.636603 
L 265.82037 282.171556 
L 266.752877 282.708455 
L 267.685975 283.239341 
L 268.619792 283.757529 
L 269.554432 284.25781 
L 270.489975 284.736531 
L 271.426476 285.191547 
L 272.363966 285.622082 
L 273.302452 286.028517 
L 274.241925 286.412144 
L 275.182362 286.774903 
L 276.123729 287.119139 
L 277.065988 287.44738 
L 278.009097 287.762161 
L 278.953016 288.065891 
L 279.897708 288.360756 
L 280.843137 288.648676 
L 281.789275 288.931274 
L 282.736097 289.209892 
L 283.683583 289.485604 
L 284.631717 289.759248 
L 285.580486 290.031467 
L 286.529882 290.302739 
L 287.479899 290.573413 
L 288.43053 290.843739 
L 289.381775 291.113892 
L 290.333629 291.383992 
L 291.286094 291.65412 
L 292.239166 291.92433 
L 293.192848 292.194655 
L 294.147138 292.465119 
L 295.102037 292.735734 
L 295.102036 292.735769 
z
" clip-path="url(#p87bf6217ff)" style="fill: #e9a6a1; fill-opacity: 0.45"/>
    <path d="M 79.32961 262.004511 
L 79.32289 261.714086 
L 80.172752 261.756901 
L 81.020337 261.673334 
L 81.864344 261.402665 
L 82.703079 260.864581 
L 83.534445 259.957863 
L 84.355988 258.561647 
L 85.165021 256.540385 
L 85.958851 253.753449 
L 86.735094 250.069762 
L 87.492078 245.38696 
L 88.229276 239.653511 
L 88.947732 232.891002 
L 89.650377 225.212825 
L 90.342161 216.835027 
L 91.029945 208.075318 
L 91.722088 199.337582 
L 92.427756 191.081374 
L 93.156022 183.778904 
L 93.914871 177.864967 
L 94.710275 173.687635 
L 95.545512 171.468295 
L 96.420836 171.278393 
L 97.333579 173.037047 
L 98.278633 176.529423 
L 99.249219 181.441451 
L 100.237778 187.403547 
L 101.23683 194.034965 
L 102.239657 200.981602 
L 103.240751 207.942571 
L 104.236007 214.684068 
L 105.2227 221.041754 
L 106.199318 226.914662 
L 107.16531 232.254217 
L 108.120831 237.051566 
L 109.066498 241.32541 
L 110.003194 245.111482 
L 110.931912 248.453999 
L 111.853641 251.398997 
L 112.769286 253.98944 
L 113.679624 256.262086 
L 114.585288 258.24616 
L 115.486778 259.963783 
L 116.384503 261.431829 
L 117.278816 262.66457 
L 118.170062 263.676263 
L 119.0586 264.482884 
L 119.944806 265.102518 
L 120.82906 265.554416 
L 121.711716 265.85722 
L 122.593084 266.027204 
L 123.473418 266.077384 
L 124.352925 266.018063 
L 125.231794 265.858843 
L 126.110237 265.611584 
L 126.988524 265.293353 
L 127.866999 264.928338 
L 128.746078 264.547919 
L 129.626215 264.188655 
L 130.507854 263.888524 
L 131.391369 263.682335 
L 132.277024 263.597419 
L 133.164941 263.650701 
L 134.055104 263.84779 
L 134.94738 264.184227 
L 135.841564 264.648409 
L 136.737423 265.225373 
L 137.634739 265.900421 
L 138.533333 266.661747 
L 139.433079 267.501499 
L 140.333885 268.415205 
L 141.235681 269.399823 
L 142.138384 270.451038 
L 143.041878 271.56052 
L 143.945998 272.713839 
L 144.850531 273.889513 
L 145.755219 275.059443 
L 146.659787 276.190642 
L 147.563969 277.247977 
L 148.467534 278.197473 
L 149.370315 279.009735 
L 150.272227 279.663054 
L 151.173278 280.145925 
L 152.073572 280.458756 
L 152.973303 280.614615 
L 153.87274 280.638913 
L 154.772202 280.567915 
L 155.672036 280.446038 
L 156.572578 280.322033 
L 157.474126 280.244332 
L 158.376907 280.25607 
L 159.281058 280.390465 
L 160.186614 280.667296 
L 161.093517 281.091089 
L 162.001625 281.651376 
L 162.910745 282.324957 
L 163.820658 283.079755 
L 164.731153 283.879519 
L 165.642051 284.688558 
L 166.553218 285.475721 
L 167.464575 286.217108 
L 168.376092 286.897301 
L 169.287782 287.509196 
L 170.199686 288.052788 
L 171.111862 288.533334 
L 172.024373 288.959341 
L 172.937279 289.340734 
L 173.850633 289.687423 
L 174.764476 290.008345 
L 175.67884 290.31096 
L 176.593749 290.601113 
L 177.509216 290.883134 
L 178.425254 291.160073 
L 179.341868 291.433983 
L 180.259061 291.706181 
L 181.176837 291.977485 
L 182.095197 292.248376 
L 183.014142 292.51913 
L 183.933672 292.789898 
L 184.853789 293.060762 
L 185.774494 293.33176 
L 186.695785 293.602914 
L 187.617665 293.874234 
L 188.540134 294.145723 
L 189.463192 294.417385 
L 190.386839 294.68922 
L 191.311078 294.961228 
L 192.235907 295.23341 
L 193.161328 295.505766 
L 194.087341 295.778296 
L 195.013946 296.051001 
L 195.941145 296.32388 
L 196.868938 296.596934 
L 197.797325 296.870163 
L 198.726307 297.143568 
L 199.655885 297.417147 
L 200.586059 297.690902 
L 201.516829 297.964833 
L 202.448197 298.238939 
L 203.380163 298.513221 
L 204.312727 298.787679 
L 205.24589 299.062314 
L 206.179653 299.337125 
L 207.114016 299.612113 
L 208.04898 299.887278 
L 208.984545 300.162619 
L 209.920711 300.438138 
L 210.857481 300.713834 
L 211.794853 300.989707 
L 212.732829 301.265758 
L 213.67141 301.541987 
L 214.610595 301.818394 
L 215.550385 302.09498 
L 216.490782 302.371743 
L 217.431785 302.648685 
L 218.373395 302.925806 
L 219.315613 303.203105 
L 220.258439 303.480584 
L 221.201875 303.758242 
L 222.145919 304.036079 
L 223.090574 304.314096 
L 224.03584 304.592292 
L 224.981717 304.870668 
L 225.928206 305.149225 
L 226.875307 305.427962 
L 227.823021 305.706879 
L 228.771349 305.985977 
L 229.720291 306.265255 
L 230.669848 306.544715 
L 231.620021 306.824355 
L 232.570809 307.104177 
L 233.522215 307.384181 
L 234.474237 307.664366 
L 235.426878 307.944733 
L 236.380136 308.225282 
L 237.334014 308.506013 
L 238.288512 308.786926 
L 239.24363 309.068022 
L 240.199369 309.349301 
L 241.155729 309.630763 
L 242.112711 309.912407 
L 243.070316 310.194235 
L 244.028544 310.476247 
L 244.987396 310.758442 
L 245.946873 311.040821 
L 246.906975 311.323384 
L 247.867702 311.606131 
L 248.829056 311.889062 
L 249.791037 312.172178 
L 250.753646 312.455479 
L 251.716882 312.738964 
L 252.680748 313.022635 
L 253.645243 313.30649 
L 254.610368 313.590531 
L 255.576123 313.874758 
L 256.54251 314.159171 
L 257.509529 314.443769 
L 258.47718 314.728554 
L 259.445465 315.013525 
L 260.414383 315.298683 
L 260.414383 315.298683 
z
" clip-path="url(#p87bf6217ff)" style="fill: #3775ba; fill-opacity: 0.45"/>
    <path d="M 40.408565 282.943567 
L 38.311854 216.979675 
L 38.609919 198.935088 
L 38.915052 180.878904 
L 39.283597 164.615279 
L 39.771102 151.966474 
L 40.421496 144.422681 
L 41.257914 142.832585 
L 42.277878 147.225273 
L 43.454263 156.816843 
L 44.741678 170.196779 
L 46.086235 185.634822 
L 47.435939 201.420505 
L 48.749176 216.151122 
L 49.999687 228.911229 
L 51.177573 239.322855 
L 52.286841 247.478394 
L 53.340672 253.791521 
L 54.355867 258.813533 
L 55.347877 263.062921 
L 56.327451 266.905386 
L 57.29935 270.502631 
L 58.262941 273.826912 
L 59.214046 276.721352 
L 60.147221 278.97854 
L 61.057771 280.412657 
L 61.943088 280.909857 
L 62.803241 280.452678 
L 63.640952 279.122597 
L 64.461198 277.088636 
L 65.270655 274.589356 
L 66.07709 271.912165 
L 66.888702 269.369566 
L 67.713325 267.269358 
L 68.557477 265.876943 
L 69.425339 265.373493 
L 70.317955 265.820996 
L 71.23302 267.149042 
L 72.165475 269.173743 
L 73.10882 271.646664 
L 74.05669 274.317232 
L 75.00412 276.984656 
L 75.948029 279.520332 
L 76.886886 281.856683 
L 77.819896 283.955053 
L 78.746232 285.774181 
L 79.664751 287.257811 
L 80.574311 288.3477 
L 81.474462 289.014122 
L 82.366129 289.286998 
L 83.251878 289.270561 
L 84.135591 289.13186 
L 85.021608 289.064692 
L 85.91364 289.240932 
L 86.81384 289.766643 
L 87.722361 290.658554 
L 88.637537 291.848268 
L 89.556556 293.21052 
L 90.476355 294.603209 
L 91.394396 295.904317 
L 92.309116 297.034788 
L 93.219991 297.963857 
L 94.127319 298.700363 
L 95.031866 299.277182 
L 95.934542 299.735734 
L 96.836174 300.114856 
L 97.7374 300.445169 
L 98.638654 300.747894 
L 99.540202 301.036243 
L 100.442193 301.317693 
L 101.344704 301.596123 
L 102.247772 301.873384 
L 103.151411 302.150295 
L 104.05563 302.42719 
L 104.960431 302.704198 
L 105.865815 302.981363 
L 106.771783 303.258701 
L 107.678337 303.536216 
L 108.585476 303.81391 
L 109.493201 304.091783 
L 110.401513 304.369836 
L 111.310412 304.648069 
L 112.219898 304.926481 
L 113.129974 305.205074 
L 114.040638 305.483846 
L 114.951891 305.7628 
L 115.863735 306.041934 
L 116.776169 306.321249 
L 117.689195 306.600744 
L 118.602813 306.880421 
L 119.517023 307.16028 
L 120.431825 307.440319 
L 121.347222 307.720541 
L 122.263212 308.000944 
L 123.179798 308.28153 
L 124.096978 308.562297 
L 125.014754 308.843247 
L 125.933127 309.12438 
L 126.852097 309.405696 
L 127.771665 309.687194 
L 128.69183 309.968875 
L 129.612595 310.25074 
L 130.533958 310.532788 
L 131.455922 310.81502 
L 132.378486 311.097436 
L 133.301652 311.380036 
L 134.225419 311.66282 
L 135.149788 311.945788 
L 136.074761 312.228941 
L 137.000336 312.512279 
L 137.926516 312.795801 
L 138.853301 313.079509 
L 139.78069 313.363402 
L 140.708686 313.64748 
L 141.637288 313.931744 
L 142.566497 314.216194 
L 143.496314 314.50083 
L 144.426738 314.785652 
L 145.357772 315.07066 
L 146.289415 315.355855 
L 147.221668 315.641237 
L 148.154532 315.926805 
L 149.088007 316.212561 
L 150.022094 316.498504 
L 150.956793 316.784635 
L 151.892105 317.070953 
L 152.828031 317.357459 
L 153.764571 317.644153 
L 154.701726 317.931035 
L 155.639496 318.218106 
L 156.577883 318.505365 
L 157.516886 318.792813 
L 158.456506 319.08045 
L 159.396744 319.368276 
L 160.337601 319.656291 
L 161.279077 319.944496 
L 162.221172 320.232891 
L 163.163888 320.521475 
L 164.107224 320.81025 
L 165.051183 321.099215 
L 165.995763 321.38837 
L 166.940966 321.677716 
L 167.886793 321.967253 
L 168.833243 322.256981 
L 169.780318 322.5469 
L 170.728019 322.83701 
L 171.676345 323.127312 
L 172.625298 323.417806 
L 173.574877 323.708492 
L 174.525085 323.99937 
L 175.475921 324.29044 
L 176.427386 324.581703 
L 177.37948 324.873158 
L 178.332205 325.164807 
L 179.28556 325.456648 
L 180.239547 325.748683 
L 181.194166 326.040911 
L 182.149418 326.333333 
L 183.105303 326.625949 
L 184.061822 326.918759 
L 185.018976 327.211764 
L 185.976765 327.504962 
L 186.93519 327.798356 
L 187.894251 328.091944 
L 188.85395 328.385727 
L 189.814286 328.679706 
L 190.775261 328.97388 
L 191.736874 329.268249 
L 192.699128 329.562815 
L 193.662021 329.857576 
L 194.625556 330.152534 
L 195.589733 330.447688 
L 196.554551 330.743039 
L 197.520013 331.038586 
L 198.486118 331.33433 
L 199.452867 331.630272 
L 200.420261 331.926411 
L 201.388301 332.222748 
L 202.356986 332.519282 
L 203.326319 332.816015 
L 204.296298 333.112945 
L 205.266926 333.410074 
L 206.238203 333.707402 
L 207.210129 334.004928 
L 208.182705 334.302654 
L 209.155931 334.600578 
L 210.129809 334.898702 
L 211.104339 335.197025 
L 212.079522 335.495549 
L 213.055358 335.794272 
L 214.031847 336.093195 
L 215.008992 336.392319 
L 215.986791 336.691644 
L 216.965247 336.991169 
L 217.944359 337.290895 
L 218.924128 337.590822 
L 219.904555 337.890951 
L 220.885641 338.191281 
L 221.867386 338.491814 
L 222.849791 338.792548 
L 223.832856 339.093484 
L 223.832856 339.093484 
z
" clip-path="url(#p87bf6217ff)" style="fill: #0f4d92; fill-opacity: 0.45"/>
   </g>
   <g id="text_25">
    <text style="font-weight: 700; font-size: 9px; font-family: 'SimHei', 'Arial', 'DejaVu Sans', sans-serif; text-anchor: start; fill: #0f4d92" x="14.1337" y="52.9386" transform="rotate(-0 14.1337 52.9386)">2011</text>
   </g>
   <g id="text_26">
    <text style="font-weight: 700; font-size: 9px; font-family: 'SimHei', 'Arial', 'DejaVu Sans', sans-serif; text-anchor: start; fill: #3775ba" x="14.1337" y="73.7397" transform="rotate(-0 14.1337 73.7397)">2015</text>
   </g>
   <g id="text_27">
    <text style="font-weight: 700; font-size: 9px; font-family: 'SimHei', 'Arial', 'DejaVu Sans', sans-serif; text-anchor: start; fill: #e9a6a1" x="14.1337" y="94.5408" transform="rotate(-0 14.1337 94.5408)">2019</text>
   </g>
   <g id="text_28">
    <text style="font-weight: 700; font-size: 9px; font-family: 'SimHei', 'Arial', 'DejaVu Sans', sans-serif; text-anchor: start; fill: #b64342" x="14.1337" y="115.3419" transform="rotate(-0 14.1337 115.3419)">2023</text>
   </g>
   <g id="text_29">
    <text style="font-weight: 700; font-size: 11px; font-family: 'SimHei', 'Arial', 'DejaVu Sans', sans-serif; text-anchor: middle; fill: #272727" x="180.5425" y="16.1375" transform="rotate(-0 180.5425 16.1375)">新质生产力分布演进：波峰右移、分布拓宽</text>
   </g>
  </g>
 </g>
 <defs>
  <clipPath id="p87bf6217ff">
   <rect x="7.2" y="32.1375" width="346.685" height="346.685"/>
  </clipPath>
 </defs>
</svg>
